<?xml version="1.0" encoding="UTF-8" standalone="no"?>
<svg
   xmlns:dc="http://purl.org/dc/elements/1.1/"
   xmlns:cc="http://creativecommons.org/ns#"
   xmlns:rdf="http://www.w3.org/1999/02/22-rdf-syntax-ns#"
   xmlns:svg="http://www.w3.org/2000/svg"
   xmlns="http://www.w3.org/2000/svg"
   viewBox="0 0 386.42667 98.199997"
   height="98.199997"
   width="386.42667"
   xml:space="preserve"
   id="svg2"
   version="1.1"><metadata
     id="metadata8"><rdf:RDF><cc:Work
         rdf:about=""><dc:format>image/svg+xml</dc:format><dc:type
           rdf:resource="http://purl.org/dc/dcmitype/StillImage" /></cc:Work></rdf:RDF></metadata><defs
     id="defs6"><clipPath
       id="clipPath94"
       clipPathUnits="userSpaceOnUse"><path
         id="path92"
         d="m 1132.82,643.965 c 0.52,-1.867 1.05,-4.43 1.04,-6.895 -0.01,-2.207 -0.49,-4.328 -0.92,-5.996 L 978.195,26.832 c -0.918,-3.5547 -2.898,-6.3203 -4.382,-6.0078 l -2.543,0.5625 135.87,715.1643 z" /></clipPath><linearGradient
       id="linearGradient102"
       spreadMethod="pad"
       gradientTransform="matrix(-151.609,-707.514,-707.514,151.609,1130.69,733.416)"
       gradientUnits="userSpaceOnUse"
       y2="0"
       x2="1"
       y1="0"
       x1="0"><stop
         id="stop96"
         offset="0"
         style="stop-opacity:1;stop-color:#be1567" /><stop
         id="stop98"
         offset="0.26303688"
         style="stop-opacity:1;stop-color:#be1567" /><stop
         id="stop100"
         offset="1"
         style="stop-opacity:1;stop-color:#611c41" /></linearGradient><clipPath
       id="clipPath112"
       clipPathUnits="userSpaceOnUse"><path
         id="path110"
         d="m 895.926,278.707 c -1.871,-21.551 -4.395,-36.816 -7.621,-46.793 -3.328,-10.101 -9.242,-19.957 -17.52,-29.269 -15.422,-17.2 -37.816,-25.95 -66.504,-25.95 -29.328,0 -50.586,7.739 -63.16,22.91 -12.457,15.149 -15.703,38.704 -12.926,70.708 l 7.434,86.097 H 711.82 l 2.196,25.274 h 62.07 l -2.066,-25.274 -6.817,-76.976 c -1.683,-19.223 -1.726,-33.383 -0.617,-42.063 0.961,-8.172 3.727,-15.027 8.016,-20.273 8.293,-10.137 19.746,-15.078 34.957,-15.078 14.644,0 26.722,4.566 36.992,14.109 9.547,8.801 15.347,27.836 17.875,56.582 l 7.469,86 c 0,0 1.96,22.973 27.015,22.973 h 5.957 z M 442,385.691 l 39.027,9.442 -3.39,-38.738 h 29.379 l -2.168,-24.907 H 475.5 l -8.602,-99.039 c -0.929,-10.629 0.215,-18.586 3.368,-23.734 2.945,-4.707 7.609,-6.996 14.336,-6.996 22.078,0 21.265,-21.133 21.265,-21.133 0,0 -16.918,-3.813 -28.16,-3.813 -18.266,0 -31.602,4.954 -39.523,14.793 -7.883,9.684 -10.914,24.762 -9.137,44.868 z m -30.203,2.512 c -0.859,-10.527 -10.192,-19.062 -20.727,-19.062 -10.535,0 -18.347,8.535 -17.406,19.062 0.953,10.512 10.188,19.047 20.738,19.047 10.524,0 18.36,-8.535 17.395,-19.047 z m -61.863,-31.808 h 58.359 L 392.699,176.82 c 0,0 -38.371,-1.91 -35,37.086 l 10.156,116.84 H 347.703 Z M 971.27,21.3867 1107.14,736.551 207.559,502.684 c -1.493,-0.395 -4.114,-1.332 -5.801,-2.461 -1.903,-1.262 -3.395,-2.852 -4.684,-4.559 L 1.12891,236.855 c -2.21094,-2.921 -1.0742225,-5.96 2.49609,-6.726 l 208.094,-44.891 c -18.199,6.797 -31.832,16.672 -38.856,24.942 -18.574,21.992 -26.675,52.265 -22.203,84.535 11.344,81.969 70.188,118.683 124.637,118.683 25.996,0 50.605,-4.289 69.988,-14.918 l -3.168,-36.46 h -26.812 l 1.222,14.089 c -9.82,6.102 -44.797,11.645 -73.648,-0.132 -33.871,-15.547 -48.457,-55.786 -50.356,-82.813 -1.324,-19.269 1.379,-44.476 14.891,-62.715 13.574,-18.344 51.578,-32.367 96.324,-17.367 19.887,6.973 28.758,-13.594 28.758,-13.594 l -2.058,-1.152 C 300.867,180.777 272.57,175.73 248.098,177.391 l 291.793,-62.95 40.687,74.391 -45.414,141.914 h -18.887 l 2.227,25.649 h 48.414 l 38.895,-121.524 53.863,98.399 c 0,0 9.203,23.125 38.687,23.125 h 9.852 L 572.426,114.961 c -1.387,-2.473 -2.754,-4.707 -4.34,-6.598 z" /></clipPath><linearGradient
       id="linearGradient120"
       spreadMethod="pad"
       gradientTransform="matrix(-566.49,-596.395,-596.395,566.49,1048.66,747.653)"
       gradientUnits="userSpaceOnUse"
       y2="0"
       x2="1"
       y1="0"
       x1="0"><stop
         id="stop114"
         offset="0"
         style="stop-opacity:1;stop-color:#fbcce4" /><stop
         id="stop116"
         offset="0.35"
         style="stop-opacity:1;stop-color:#be1567" /><stop
         id="stop118"
         offset="1"
         style="stop-opacity:1;stop-color:#611c41" /></linearGradient></defs><g
     transform="matrix(1.3333333,0,0,-1.3333333,0,98.2)"
     id="g10"><g
       transform="scale(0.1)"
       id="g12"><path
         id="path14"
         style="fill:#231f20;fill-opacity:1;fill-rule:nonzero;stroke:none"
         d="m 1296.61,68.9063 c -3.62,4.9062 -9.38,7.3984 -15.22,7.3984 -13.57,0 -23.2,-11.9492 -23.2,-25.2852 0,-14.0664 9.54,-25.2382 23.2,-25.2382 7.4,0 13.32,3.0156 17.62,8.5117 l 5.41,-4.5586 c -5.41,-7.2969 -13.33,-10.6563 -23.03,-10.6563 -17.44,0 -30.94,13.4961 -30.94,31.9414 0,17.8868 12.88,31.9727 30.94,31.9727 8.25,0 16.32,-2.8164 21.49,-9.5313 l -6.27,-4.5546" /><path
         id="path16"
         style="fill:#231f20;fill-opacity:1;fill-rule:nonzero;stroke:none"
         d="m 1465.72,43.8281 c 0,-13.2226 -6.18,-24.75 -22.93,-24.75 -16.76,0 -22.94,11.5274 -22.94,24.75 v 37.6211 h 7.22 V 44.8594 c 0,-9.8008 3.61,-19.0781 15.72,-19.0781 12.11,0 15.72,9.2773 15.72,19.0781 v 36.5898 h 7.21 V 43.8281" /><path
         id="path18"
         style="fill:#231f20;fill-opacity:1;fill-rule:nonzero;stroke:none"
         d="m 1312.64,60.8438 h 6.71 V 20.6289 h -6.71 z m 3.35,20.621 c 2.76,0 4.89,-2.2382 4.89,-4.9023 0,-2.8281 -2.05,-4.8984 -4.89,-4.8984 -2.83,0 -4.89,2.0703 -4.89,4.8984 0,2.6641 2.15,4.9023 4.89,4.9023" /><path
         id="path20"
         style="fill:#231f20;fill-opacity:1;fill-rule:nonzero;stroke:none"
         d="m 1352.87,55.1836 h -11.88 v -20.125 c 0,-5.1484 0.1,-9.2773 6.04,-9.2773 1.97,0 4.11,0.4375 5.92,1.375 l 0.24,-6.0977 c -2.31,-1.0352 -5.32,-1.4531 -7.8,-1.4531 -9.54,0 -11.09,5.1406 -11.09,13.4883 v 22.0898 h -8.76 v 5.6602 h 8.76 v 11.4218 h 6.69 V 60.8438 h 11.88 v -5.6602" /><path
         id="path22"
         style="fill:#231f20;fill-opacity:1;fill-rule:nonzero;stroke:none"
         d="M 1379.38,11.4258 C 1376.75,4.64844 1374.07,0 1365.99,0 c -1.89,0 -4.21,0.183594 -6.01,1.04297 l 0.85,5.83594 c 1.38,-0.52735 2.84,-0.6836 4.73,-0.6836 4.39,0 6.02,2.66797 7.47,6.62499 l 2.74,7.5469 -16.64,40.4766 h 7.8 l 12.45,-31.5391 h 0.19 l 11.95,31.5391 h 7.3 l -19.44,-49.418" /><path
         id="path24"
         style="fill:#231f20;fill-opacity:1;fill-rule:nonzero;stroke:none"
         d="m 1474.57,51.2969 c 0,3.7031 -0.34,6.8828 -0.34,9.5469 h 6.35 c 0,-2.168 0.17,-4.3829 0.17,-6.6094 h 0.18 c 1.8,3.9453 6.79,7.6289 13.39,7.6289 10.58,0 15.3,-6.6797 15.3,-16.3985 V 20.6289 h -6.69 v 24.1406 c 0,6.711 -2.92,10.9219 -9.2,10.9219 -8.68,0 -12.45,-6.2969 -12.45,-15.4766 V 20.6289 h -6.71 v 30.668" /><path
         id="path26"
         style="fill:#231f20;fill-opacity:1;fill-rule:nonzero;stroke:none"
         d="m 1519,60.8438 h 6.69 V 20.6289 H 1519 Z m 3.36,20.621 c 2.72,0 4.87,-2.2382 4.87,-4.9023 0,-2.8281 -2.05,-4.8984 -4.87,-4.8984 -2.85,0 -4.91,2.0703 -4.91,4.8984 0,2.6641 2.16,4.9023 4.91,4.9023" /><path
         id="path28"
         style="fill:#231f20;fill-opacity:1;fill-rule:nonzero;stroke:none"
         d="m 1557.77,20.6289 h -7.39 l -16.4,40.2149 h 7.81 l 12.55,-31.5391 h 0.17 l 11.93,31.5391 h 7.22 l -15.89,-40.2149" /><path
         id="path30"
         style="fill:#231f20;fill-opacity:1;fill-rule:nonzero;stroke:none"
         d="m 1654.53,31.1992 c 2.65,-3.2617 5.58,-5.4179 10.3,-5.4179 4.23,0 8.86,1.8164 8.86,6.1992 0,4.2734 -4.3,5.3906 -8.6,6.3554 -7.65,1.6993 -14.17,3.3399 -14.17,11.6797 0,7.8008 7.56,11.8633 15.03,11.8633 5.67,0 10.91,-2.168 13.66,-7.3086 l -5.57,-3.6953 c -1.75,2.8125 -4.57,4.8164 -8.52,4.8164 -3.7,0 -7.91,-1.8125 -7.91,-5.5859 0,-3.3516 4.83,-4.8086 10.16,-5.8516 7.12,-1.3789 13.12,-3.9375 13.12,-12.043 0,-9.0898 -8.07,-12.6054 -16.06,-12.6054 -6.79,0 -11.67,1.7968 -15.64,7.4648 l 5.34,4.1289" /><path
         id="path32"
         style="fill:#231f20;fill-opacity:1;fill-rule:nonzero;stroke:none"
         d="m 1607.84,44.3398 c -0.25,6.793 -4.73,11.3516 -12.1,11.3516 -7.42,0 -12.3,-4.5586 -13.16,-11.3516 z m 5.75,-16.4023 c -4.72,-6.1055 -10.39,-8.332 -17.85,-8.332 -12.64,0 -20.39,9.4336 -20.39,21.125 0,12.4531 8.78,21.1328 20.63,21.1328 11.34,0 19.06,-7.7227 19.06,-21.0469 v -2.1445 h -32.46 c 0.52,-6.9727 5.82,-12.8906 13.16,-12.8906 5.74,0 9.62,2.0546 12.79,6.1171 l 5.06,-3.9609" /><path
         id="path34"
         style="fill:#231f20;fill-opacity:1;fill-rule:nonzero;stroke:none"
         d="m 1623.6,51.2969 c 0,3.7031 -0.35,6.8828 -0.35,9.5469 h 6.36 c 0,-2.168 0.17,-4.3829 0.17,-6.6094 h 0.17 c 1.81,3.9453 6.8,7.6289 13.41,7.6289 0.86,0 1.79,-0.086 2.75,-0.4375 l -0.43,-6.7695 c -1.13,0.3437 -2.41,0.5273 -3.61,0.5273 -8.18,0 -11.77,-5.7891 -11.77,-14.9688 V 20.6289 h -6.7 v 30.668" /><path
         id="path36"
         style="fill:#231f20;fill-opacity:1;fill-rule:nonzero;stroke:none"
         d="m 1688.73,60.8438 h 6.71 V 20.6289 h -6.71 z m 3.35,20.621 c 2.76,0 4.89,-2.2382 4.89,-4.9023 0,-2.8281 -2.05,-4.8984 -4.89,-4.8984 -2.83,0 -4.89,2.0703 -4.89,4.8984 0,2.6641 2.14,4.9023 4.89,4.9023" /><path
         id="path38"
         style="fill:#231f20;fill-opacity:1;fill-rule:nonzero;stroke:none"
         d="m 1730.63,55.1836 h -11.88 v -20.125 c 0,-5.1484 0.09,-9.2773 6.04,-9.2773 1.96,0 4.1,0.4375 5.92,1.375 l 0.24,-6.0977 c -2.32,-1.0352 -5.32,-1.4531 -7.81,-1.4531 -9.53,0 -11.09,5.1406 -11.09,13.4883 v 22.0898 h -8.75 v 5.6602 h 8.75 v 11.4218 h 6.7 V 60.8438 h 11.88 v -5.6602" /><path
         id="path40"
         style="fill:#231f20;fill-opacity:1;fill-rule:nonzero;stroke:none"
         d="M 1755.81,11.4258 C 1753.18,4.64844 1750.5,0 1742.42,0 c -1.9,0 -4.21,0.183594 -6.01,1.04297 l 0.84,5.83594 c 1.39,-0.52735 2.85,-0.6836 4.75,-0.6836 4.38,0 6.01,2.66797 7.45,6.62499 l 2.76,7.5469 -16.66,40.4766 h 7.81 l 12.45,-31.5391 h 0.18 l 11.95,31.5391 h 7.31 l -19.44,-49.418" /><path
         id="path42"
         style="fill:#231f20;fill-opacity:1;fill-rule:nonzero;stroke:none"
         d="m 1815.06,25.7813 c 8.69,0 14.26,6.539 14.26,14.9492 0,8.4258 -5.57,14.9531 -14.26,14.9531 -8.67,0 -14.26,-6.5273 -14.26,-14.9531 0,-8.4102 5.59,-14.9492 14.26,-14.9492 m 0,36.0976 c 12.38,0 21.49,-8.5976 21.49,-21.1484 0,-12.5625 -9.11,-21.125 -21.49,-21.125 -12.38,0 -21.45,8.5625 -21.45,21.125 0,12.5508 9.07,21.1484 21.45,21.1484" /><path
         id="path44"
         style="fill:#231f20;fill-opacity:1;fill-rule:nonzero;stroke:none"
         d="m 1848.1,55.1836 h -8.75 v 5.6602 h 8.75 v 9.0156 c 0,9.8047 3.44,16.7656 14.27,16.7656 1.71,0 3.88,-0.3477 5.16,-1.0547 l -0.95,-6 c -1.47,0.5156 -3.02,0.8594 -4.55,0.8594 -6.98,0 -7.23,-5.0625 -7.23,-12.0313 v -7.5546 h 9.8 v -5.6602 h -9.8 V 20.6289 h -6.7 v 34.5547" /><path
         id="path46"
         style="fill:#231f20;fill-opacity:1;fill-rule:nonzero;stroke:none"
         d="m 1892.12,81.4648 h 7.22 V 55.6914 h 32.47 v 25.7734 h 7.23 V 20.6289 h -7.23 v 28.3438 h -32.47 V 20.6289 h -7.22 v 60.8359" /><path
         id="path48"
         style="fill:#231f20;fill-opacity:1;fill-rule:nonzero;stroke:none"
         d="m 1968.91,25.7813 c 8.66,0 14.26,6.539 14.26,14.9492 0,8.4258 -5.6,14.9531 -14.26,14.9531 -8.69,0 -14.29,-6.5273 -14.29,-14.9531 0,-8.4102 5.6,-14.9492 14.29,-14.9492 m 0,36.0976 c 12.38,0 21.47,-8.5976 21.47,-21.1484 0,-12.5625 -9.09,-21.125 -21.47,-21.125 -12.37,0 -21.49,8.5625 -21.49,21.125 0,12.5508 9.12,21.1484 21.49,21.1484" /><path
         id="path50"
         style="fill:#231f20;fill-opacity:1;fill-rule:nonzero;stroke:none"
         d="m 1998.77,51.2969 c 0,3.7031 -0.33,6.8828 -0.33,9.5469 h 6.34 c 0,-2.168 0.17,-4.3829 0.17,-6.6094 h 0.17 c 1.8,3.9453 6.79,7.6289 13.41,7.6289 10.56,0 15.29,-6.6797 15.29,-16.3985 V 20.6289 h -6.7 v 24.1406 c 0,6.711 -2.91,10.9219 -9.18,10.9219 -8.69,0 -12.47,-6.2969 -12.47,-15.4766 V 20.6289 h -6.7 v 30.668" /><path
         id="path52"
         style="fill:#231f20;fill-opacity:1;fill-rule:nonzero;stroke:none"
         d="m 2063.05,26.2969 c 9.21,0 14.36,6.8906 14.36,14.6094 0,8.6796 -5.85,14.7851 -14.36,14.7851 -8.4,0 -14.17,-6.5351 -14.17,-14.9609 0,-8.1563 6.36,-14.4336 14.17,-14.4336 m 21.05,-3.8594 C 2084.1,7.89453 2076.3,0 2062.2,0 c -7.82,0 -14.08,2.05469 -19.77,7.63672 l 4.82,5.52348 c 4.2,-4.56645 8.77,-6.96489 14.95,-6.96489 12.03,0 15.21,7.73049 15.21,16.24219 v 5.1602 h -0.17 c -3.19,-5.1602 -8.86,-7.4961 -14.19,-7.4961 -12.62,0 -21.38,8.7851 -21.38,20.6289 0,13.1484 8.58,21.1484 21.38,21.1484 5.42,0 11.52,-2.582 14.19,-7.9141 h 0.17 v 6.879 h 6.69 V 22.4375" /><path
         id="path54"
         style="fill:#231f20;fill-opacity:1;fill-rule:nonzero;stroke:none"
         d="m 2182.86,25.7813 c 8.66,0 14.26,6.539 14.26,14.9492 0,8.4258 -5.6,14.9531 -14.26,14.9531 -8.68,0 -14.28,-6.5273 -14.28,-14.9531 0,-8.4102 5.6,-14.9492 14.28,-14.9492 m 0,36.0976 c 12.37,0 21.47,-8.5976 21.47,-21.1484 0,-12.5625 -9.1,-21.125 -21.47,-21.125 -12.36,0 -21.48,8.5625 -21.48,21.125 0,12.5508 9.12,21.1484 21.48,21.1484" /><path
         id="path56"
         style="fill:#231f20;fill-opacity:1;fill-rule:nonzero;stroke:none"
         d="m 2212.72,51.2969 c 0,3.7031 -0.33,6.8828 -0.33,9.5469 h 6.34 c 0,-2.168 0.18,-4.3829 0.18,-6.6094 h 0.17 c 1.81,3.9453 6.78,7.6289 13.4,7.6289 10.57,0 15.3,-6.6797 15.3,-16.3985 V 20.6289 h -6.7 v 24.1406 c 0,6.711 -2.92,10.9219 -9.19,10.9219 -8.68,0 -12.47,-6.2969 -12.47,-15.4766 V 20.6289 h -6.7 v 30.668" /><path
         id="path58"
         style="fill:#231f20;fill-opacity:1;fill-rule:nonzero;stroke:none"
         d="m 2277,26.2969 c 9.22,0 14.37,6.8906 14.37,14.6094 0,8.6796 -5.86,14.7851 -14.37,14.7851 -8.41,0 -14.17,-6.5351 -14.17,-14.9609 0,-8.1563 6.36,-14.4336 14.17,-14.4336 m 21.06,-3.8594 C 2298.06,7.89453 2290.25,0 2276.15,0 c -7.82,0 -14.09,2.05469 -19.76,7.63672 l 4.81,5.52348 c 4.21,-4.56645 8.77,-6.96489 14.95,-6.96489 12.03,0 15.22,7.73049 15.22,16.24219 v 5.1602 h -0.19 c -3.17,-5.1602 -8.84,-7.4961 -14.18,-7.4961 -12.61,0 -21.38,8.7851 -21.38,20.6289 0,13.1484 8.6,21.1484 21.38,21.1484 5.42,0 11.52,-2.582 14.18,-7.9141 h 0.19 v 6.879 h 6.69 V 22.4375" /><path
         id="path60"
         style="fill:#231f20;fill-opacity:1;fill-rule:nonzero;stroke:none"
         d="m 2114.92,81.4648 h 7.21 V 55.1836 h 1.04 l 27.66,26.2812 h 10.39 l -30.07,-27.746 31.53,-33.0899 h -10.56 l -28.95,30.9336 h -1.04 V 20.6289 h -7.21 v 60.8359" /><path
         id="path62"
         style="fill:#231f20;fill-opacity:1;fill-rule:nonzero;stroke:none"
         d="m 1276.17,147.859 v 12.864 h 46.18 v -12.864 z m 46.18,-5.695 v -14.051 h -46.18 v 14.051 z m -13.51,48.504 h 36.52 v 5.703 h -43.25 v 10.598 c 11.88,1.054 23.02,2.629 33.14,4.699 l 1.06,0.215 -3.26,5.996 -0.57,-0.109 c -23.51,-4.68 -47.45,-7.043 -71.15,-7.043 h -1.05 l 1.72,-6.157 0.61,0.016 c 11.66,0.293 22.89,0.918 33.39,1.836 v -10.051 h -43.28 v -5.703 h 36.37 c -3.87,-4.156 -9.01,-8.316 -15.35,-12.367 -7.88,-5.071 -15.73,-9.004 -23.33,-11.719 l -0.85,-0.305 2.72,-5.574 0.68,0.25 c 7.87,2.902 16.55,7.485 25.83,13.617 6.89,4.868 12.67,9.989 17.21,15.235 V 166.43 h -25.97 v -43.985 h 58.44 v 43.985 h -26.36 v 23.363 c 8.99,-10.18 22.87,-19.578 41.29,-27.957 l 0.52,-0.234 4.97,5.359 -1.05,0.437 c -17.34,7.129 -30.45,14.954 -39,23.27" /><path
         id="path64"
         style="fill:#231f20;fill-opacity:1;fill-rule:nonzero;stroke:none"
         d="m 1826.62,150.41 c -6.94,9.215 -11.56,19.207 -14.09,31.113 h 37.97 v 6.52 h -46.07 c 1.13,7.898 2.06,17.16 2.82,28.285 l 0.05,0.844 h -6.4 l -0.04,-0.742 c -0.71,-10.262 -1.72,-20.067 -2.95,-28.387 h -38.79 v -6.52 h 37.67 c -2.39,-12.269 -5.58,-21.445 -9.5,-27.824 -6.71,-10.976 -17.08,-20.16 -31.72,-28.086 l -0.9,-0.492 4.67,-4.992 0.54,0.289 c 15.82,8.504 26.83,18.445 33.65,30.383 4.09,7.094 7.29,16.961 9.78,30.722 h 2.68 c 2.56,-12.855 7.47,-23.957 14.99,-34.464 7,-10.422 15.98,-19.129 27.46,-26.582 l 0.65,-0.43 4.19,6.316 -0.7,0.438 c -10.79,6.582 -19.28,14.297 -25.96,23.609" /><path
         id="path66"
         style="fill:#231f20;fill-opacity:1;fill-rule:nonzero;stroke:none"
         d="m 1688.79,206.293 -0.47,0.512 c -3.99,4.371 -8.08,7.761 -12.54,10.683 l -0.58,0.391 -3.9,-4.609 0.7,-0.497 c 4.6,-3.293 8.51,-6.718 11.62,-10.492 h -52.4 v -6.187 h 46.1 v -17.75 h -34.61 v -48.969 h 6.98 v 42.742 h 27.63 v -52.07 h 6.96 v 52.07 h 28.93 v -31.629 c 0,-3.711 -1.51,-3.711 -2.08,-3.711 -4.21,0 -9.12,1.075 -14.58,3.192 l -1.19,0.469 0.58,-6.719 0.48,-0.176 c 5.59,-1.953 10.41,-2.91 14.71,-2.91 5.9,0 9.03,3.125 9.03,9.043 v 38.668 h -35.88 v 17.75 h 46.1 v 6.187 h -44.97 l 3.38,4.012" /><path
         id="path68"
         style="fill:#231f20;fill-opacity:1;fill-rule:nonzero;stroke:none"
         d="m 1397.91,194.301 0.64,-0.649 3.83,5.082 -0.51,0.489 c -4.92,4.824 -10.51,9.156 -16.61,12.867 l -0.61,0.371 -3.48,-4.629 0.72,-0.465 c 5.44,-3.476 10.82,-7.879 16.02,-13.066" /><path
         id="path70"
         style="fill:#231f20;fill-opacity:1;fill-rule:nonzero;stroke:none"
         d="m 1421.08,166.43 c 2.21,3.277 3.99,6.535 5.45,9.906 h 18.02 c 2.13,-3.41 4.68,-6.719 7.63,-9.906 z m 23.12,29.324 v -13.723 h -17.71 v 13.723 z m -20.67,-46.223 v 11.172 h 24.35 v -11.172 z m 28.19,26.805 h 22.13 v 5.695 h -23.54 v 13.723 h 18.16 v 5.699 h -18.16 v 15.719 h -6.11 v -15.719 h -17.71 v 15.719 h -6.12 v -15.719 h -15.31 v -5.699 h 15.31 v -13.723 h -21.44 v -5.695 h 20.78 c -1.53,-3.203 -3.66,-6.606 -6.36,-10.125 -3.7,-4.746 -8.33,-9.164 -13.77,-13.129 l -0.75,-0.559 4.53,-4.398 0.54,0.406 c 5.04,3.715 9.47,7.953 13.5,12.903 v -28.735 c 0,-3.66 0.54,-6.449 3.21,-8.144 2.6,-1.66 9.46,-2.145 30.62,-2.145 9.82,0 13.64,1.113 15.15,4.391 0.82,1.773 1.36,6.383 1.68,14.117 l 0.02,0.512 -6.54,3.179 -0.08,-2.343 c -0.16,-4.938 -0.32,-9.59 -0.96,-11.137 -0.91,-2.215 -3.59,-2.586 -9.27,-2.586 -15.67,0 -23.95,0.055 -26.11,1.285 -1.35,0.774 -1.59,1.602 -1.59,3.18 v 10.824 h 30.49 v 20.68 c 4.63,-4.66 10.14,-9.059 16.5,-13.164 l 0.57,-0.375 4.78,5.355 -0.84,0.485 c -10.3,6 -18.14,12.558 -23.31,19.523" /><path
         id="path72"
         style="fill:#231f20;fill-opacity:1;fill-rule:nonzero;stroke:none"
         d="m 1399.82,160.98 -5.08,3.477 -0.3,-1.051 c -4.15,-13.988 -9.98,-27.051 -17.32,-38.828 l -0.4,-0.644 5.55,-3.887 0.43,0.769 c 7.66,13.664 13.21,26.625 16.96,39.614 l 0.16,0.55" /><path
         id="path74"
         style="fill:#231f20;fill-opacity:1;fill-rule:nonzero;stroke:none"
         d="m 1393.33,170.063 0.64,-0.708 3.85,4.961 -0.46,0.497 c -4.98,5.41 -10.4,10.039 -16.6,14.167 l -0.61,0.403 -3.5,-4.492 0.68,-0.481 c 5.77,-4.156 11.01,-8.847 16,-14.347" /><path
         id="path76"
         style="fill:#231f20;fill-opacity:1;fill-rule:nonzero;stroke:none"
         d="m 1919.56,174.043 c 4.27,1.918 8.27,4.324 11.89,7.172 2.89,-2.567 5.18,-4.746 7.36,-6.996 l 0.37,-0.395 h -20.11 z m -28.64,-5.922 h 77.54 v -11.09 h 6.02 v 16.793 h -6.95 l 0.91,38.391 h -23.72 v -5.731 h 17.45 l -0.16,-7.035 h -17.29 v -5.82 h 17.14 l -0.14,-6.641 h -18.68 v -5.703 h 18.54 l -0.18,-7.461 h -21.81 l 3.87,4.246 -0.57,0.532 c -2.47,2.277 -4.74,4.351 -7.15,6.347 2.17,2.141 4.18,4.524 5.98,7.082 l 0.37,0.516 -2.25,2.531 3.62,4.004 -0.97,0.887 c -1.95,1.769 -3.96,3.594 -6.1,5.324 2.36,2.285 4.58,4.789 6.93,7.973 l 0.38,0.523 -3.64,4.09 -0.58,-0.813 c -2.12,-3.023 -4.55,-5.722 -7.42,-8.355 -2.94,2.172 -6.21,4.379 -9.98,6.707 l -0.58,0.367 -3.46,-4.062 0.76,-0.489 c 3.43,-2.222 6.3,-4.175 8.92,-6.093 -3.14,-2.348 -6.67,-4.411 -10.49,-6.114 l -0.84,-0.371 2.95,-4.75 0.63,0.282 c 4.22,1.898 8.19,4.312 12.11,7.382 2.15,-1.875 4.23,-3.886 5.96,-5.59 l -0.14,-0.191 c -1.88,-2.656 -4,-5.09 -6.49,-7.445 -2.81,2.031 -5.69,3.961 -8.89,6.058 l -0.6,0.399 -3.46,-4.211 0.77,-0.477 c 2.42,-1.511 4.96,-3.261 7.77,-5.351 -3.06,-2.278 -6.41,-4.254 -10.21,-6.016 l -0.83,-0.387 2.94,-4.535 h -21.45 l -0.07,7.891 h 18.54 v 5.703 h -18.69 l -0.08,6.211 h 18.04 v 5.82 h -18.06 l -0.07,4.242 c 6.54,1.219 12.89,3.329 19.38,6.454 l 0.79,0.382 -3.38,5.45 -0.63,-0.27 c -7.63,-3.297 -14.71,-5.398 -21.64,-6.453 l -0.69,-0.109 0.85,-35.321 h -6.94 v -16.793 h 6.12 v 11.09" /><path
         id="path78"
         style="fill:#231f20;fill-opacity:1;fill-rule:nonzero;stroke:none"
         d="m 1977.85,144.59 h -45.8 c -0.02,0.066 -0.05,0.152 -0.08,0.23 -0.08,0.203 -0.16,0.43 -0.23,0.649 10.76,3.281 20.18,7.351 28,12.094 l 0.39,0.23 v 4.941 h -60.56 v -5.703 h 48.01 c -5.12,-2.226 -10.97,-4.258 -17.45,-6.051 l -0.01,-0.007 c -0.23,-0.039 -0.84,-0.172 -1.52,-0.36 l -0.03,-0.011 c -0.05,-0.012 -0.08,-0.016 -0.12,-0.032 -0.75,-0.199 -1.82,-0.465 -2.86,-0.707 -0.46,-0.113 -0.92,-0.226 -1.36,-0.332 l -0.98,-0.238 0.46,-0.898 c 0.59,-1.125 1.09,-2.305 1.62,-3.805 h -43.91 v -5.703 h 45.55 c 0.56,-2.477 1.04,-4.688 1.15,-7.719 0.1,-2.684 -0.14,-3.879 -0.89,-4.426 -0.5,-0.363 -0.99,-0.57 -2.07,-0.57 -3.16,0 -6.72,0.808 -10.9,2.476 l -1.21,0.473 0.6,-6.758 0.49,-0.168 c 4.47,-1.437 8.45,-2.148 12.16,-2.148 2.44,0 4.38,0.598 5.81,1.777 1.77,1.543 2.52,4.348 2.5,9.383 -0.01,2.547 -0.36,4.813 -0.98,7.68 h 44.22 v 5.703" /><path
         id="path80"
         style="fill:#231f20;fill-opacity:1;fill-rule:nonzero;stroke:none"
         d="m 1535.71,152.148 -1.01,6.227 -0.99,-0.555 c -2.92,-1.601 -5.02,-2.543 -8.93,-4.105 v 28.012 h 10.8 v 5.691 h -10.8 v 26.809 h -6.12 v -26.809 h -12.43 v -5.691 h 12.43 v -30.43 c -4.38,-1.711 -8.47,-3.234 -13.42,-4.649 l -0.95,-0.265 3.2,-5.992 0.64,0.203 c 9.13,2.984 17.98,6.676 27.06,11.289 l 0.52,0.265" /><path
         id="path82"
         style="fill:#231f20;fill-opacity:1;fill-rule:nonzero;stroke:none"
         d="m 1597.31,141.605 c -0.59,-7.015 -1.3,-12.113 -1.97,-14 -0.46,-1.359 -1.14,-1.359 -1.36,-1.359 -1.18,0 -3.47,2.176 -6.33,8.285 -1.54,3.266 -2.92,6.961 -4.09,11 0.01,0.012 0.02,0.016 0.03,0.032 l 0.07,0.078 c 5.22,7.363 9.53,19.433 12.79,35.882 l 0.15,0.786 -6.45,1.234 -0.14,-0.773 c -2.3,-11.754 -5.23,-21.29 -8.75,-28.387 -0.76,3.281 -1.51,7.008 -2.13,10.722 -1.3,8.301 -2.15,17.231 -2.57,26.52 h 24.86 v 5.715 h -25.15 c -0.27,5.805 -0.39,12.039 -0.39,19.043 v 0.789 h -6.53 v -0.789 c 0,-7.664 0.11,-13.582 0.36,-19.043 h -30.44 v -29.902 c 0,-10.829 -1.43,-19.274 -4.25,-25.77 -2.76,-6.398 -6.7,-11.691 -12.03,-16.18 l -0.59,-0.5 3.94,-4.941 0.62,0.519 c 5.77,4.793 10.16,10.485 13.41,17.399 3.34,7.191 5.03,16.672 5.03,28.836 v 4.672 h 15.25 c -0.4,-12.235 -1.21,-20.922 -2.27,-24.481 -1.05,-3.258 -2.61,-3.258 -3.12,-3.258 -1.69,0 -4,0.211 -8.52,1.774 l -1.06,0.371 v -6.676 l 0.57,-0.172 c 4.34,-1.301 7.29,-1.859 9.85,-1.859 3.26,0 5.71,2.047 7.3,6.109 1.63,4.352 2.78,15.489 3.43,33.098 l 0.02,0.812 h -21.45 v 14.434 h 24.62 c 0.64,-10.957 1.79,-21 3.44,-29.844 0.93,-5.019 2.12,-10.215 3.4,-14.687 -5.15,-7.34 -11.99,-14.071 -20.86,-20.184 l -0.7,-0.484 3.75,-4.625 0.6,0.39 c 7.78,5.051 14.16,10.856 19.48,17.414 1.2,-3.437 2.66,-6.738 4.34,-9.816 3.31,-6.019 6.7,-9.195 10.4,-9.687 2.27,-0.309 4.49,0.777 5.74,2.785 1.54,2.484 2.65,7.304 3.49,15.176 l 0.04,0.433 -5.71,4.598 -0.12,-1.489" /><path
         id="path84"
         style="fill:#231f20;fill-opacity:1;fill-rule:nonzero;stroke:none"
         d="m 1590.06,199.078 0.38,-0.887 5.49,3.77 -0.32,0.625 c -2.51,4.922 -5.15,8.816 -8.85,13.035 l -0.47,0.531 -4.98,-3.402 0.55,-0.676 c 3.88,-4.781 6.25,-8.551 8.2,-12.996" /><path
         id="path86"
         style="fill:#ffffff;fill-opacity:1;fill-rule:nonzero;stroke:none"
         d="M 1105.13,734.414 207.957,501.16 c -1.305,-0.324 -3.801,-1.215 -5.332,-2.238 -1.562,-1.031 -2.922,-2.371 -4.297,-4.195 L 3.58594,237.539 c -0.72656,-0.973 -0.6875,-1.875 -0.69922,-2.687 -0.02734,-1.493 1.20312,-2.934 2.38281,-3.196 l 195.00747,-42.445 11.442,-3.973 36.379,-7.847 24.961,-3.481 244.804,-52.808 22.028,-6.661 28.195,-6.078 19.258,-2.457 382.64,-82.6443 135.146,711.1523" /><g
         id="g88"><g
           clip-path="url(#clipPath94)"
           id="g90"><path
             id="path104"
             style="fill:url(#linearGradient102);fill-opacity:1;fill-rule:nonzero;stroke:none"
             d="m 1132.82,643.965 c 0.52,-1.867 1.05,-4.43 1.04,-6.895 -0.01,-2.207 -0.49,-4.328 -0.92,-5.996 L 978.195,26.832 c -0.918,-3.5547 -2.898,-6.3203 -4.382,-6.0078 l -2.543,0.5625 135.87,715.1643 25.68,-92.586" /></g></g><g
         id="g106"><g
           clip-path="url(#clipPath112)"
           id="g108"><path
             id="path122"
             style="fill:url(#linearGradient120);fill-opacity:1;fill-rule:nonzero;stroke:none"
             d="m 895.926,278.707 c -1.871,-21.551 -4.395,-36.816 -7.621,-46.793 -3.328,-10.101 -9.242,-19.957 -17.52,-29.269 -15.422,-17.2 -37.816,-25.95 -66.504,-25.95 -29.328,0 -50.586,7.739 -63.16,22.91 -12.457,15.149 -15.703,38.704 -12.926,70.708 l 7.434,86.097 H 711.82 l 2.196,25.274 h 62.07 l -2.066,-25.274 -6.817,-76.976 c -1.683,-19.223 -1.726,-33.383 -0.617,-42.063 0.961,-8.172 3.727,-15.027 8.016,-20.273 8.293,-10.137 19.746,-15.078 34.957,-15.078 14.644,0 26.722,4.566 36.992,14.109 9.547,8.801 15.347,27.836 17.875,56.582 l 7.469,86 c 0,0 1.96,22.973 27.015,22.973 h 5.957 z M 442,385.691 l 39.027,9.442 -3.39,-38.738 h 29.379 l -2.168,-24.907 H 475.5 l -8.602,-99.039 c -0.929,-10.629 0.215,-18.586 3.368,-23.734 2.945,-4.707 7.609,-6.996 14.336,-6.996 22.078,0 21.265,-21.133 21.265,-21.133 0,0 -16.918,-3.813 -28.16,-3.813 -18.266,0 -31.602,4.954 -39.523,14.793 -7.883,9.684 -10.914,24.762 -9.137,44.868 z m -30.203,2.512 c -0.859,-10.527 -10.192,-19.062 -20.727,-19.062 -10.535,0 -18.347,8.535 -17.406,19.062 0.953,10.512 10.188,19.047 20.738,19.047 10.524,0 18.36,-8.535 17.395,-19.047 z m -61.863,-31.808 h 58.359 L 392.699,176.82 c 0,0 -38.371,-1.91 -35,37.086 l 10.156,116.84 H 347.703 Z M 971.27,21.3867 1107.14,736.551 207.559,502.684 c -1.493,-0.395 -4.114,-1.332 -5.801,-2.461 -1.903,-1.262 -3.395,-2.852 -4.684,-4.559 L 1.12891,236.855 c -2.21094,-2.921 -1.0742225,-5.96 2.49609,-6.726 l 208.094,-44.891 c -18.199,6.797 -31.832,16.672 -38.856,24.942 -18.574,21.992 -26.675,52.265 -22.203,84.535 11.344,81.969 70.188,118.683 124.637,118.683 25.996,0 50.605,-4.289 69.988,-14.918 l -3.168,-36.46 h -26.812 l 1.222,14.089 c -9.82,6.102 -44.797,11.645 -73.648,-0.132 -33.871,-15.547 -48.457,-55.786 -50.356,-82.813 -1.324,-19.269 1.379,-44.476 14.891,-62.715 13.574,-18.344 51.578,-32.367 96.324,-17.367 19.887,6.973 28.758,-13.594 28.758,-13.594 l -2.058,-1.152 C 300.867,180.777 272.57,175.73 248.098,177.391 l 291.793,-62.95 40.687,74.391 -45.414,141.914 h -18.887 l 2.227,25.649 h 48.414 l 38.895,-121.524 53.863,98.399 c 0,0 9.203,23.125 38.687,23.125 h 9.852 L 572.426,114.961 c -1.387,-2.473 -2.754,-4.707 -4.34,-6.598 L 971.27,21.3867" /></g></g><path
         id="path124"
         style="fill:#be1567;fill-opacity:1;fill-rule:nonzero;stroke:none"
         d="m 1290.19,592.652 c 21.01,0 57.42,12 57.42,60.012 0,51.813 -43.01,53.41 -56.42,53.41 h -27.6 V 592.652 Z m -39.4,125.625 h 46 c 50.62,0 64.42,-36.808 64.42,-66.812 0,-40.61 -28.6,-70.817 -67.01,-70.817 h -43.41 v 137.629" /><path
         id="path126"
         style="fill:#be1567;fill-opacity:1;fill-rule:nonzero;stroke:none"
         d="m 1437.39,637.262 c 0,13 -6.8,25.203 -21.2,25.203 -16.81,0 -25.21,-14.801 -27.01,-25.203 z m -61.82,-11.602 c 0,26.004 13.81,48.207 40.81,48.207 24.41,0 33.62,-18.004 33.62,-40.207 v -7.199 h -62.02 c 0,-18.805 9.61,-35.613 30.6,-35.613 9.61,0 18.21,3.804 22.81,7.004 0,0.199 5.81,-10.403 5.81,-10.403 -5,-3 -15.21,-8 -29.41,-8 -27.41,0 -42.22,21.004 -42.22,46.211" /><path
         id="path128"
         style="fill:#be1567;fill-opacity:1;fill-rule:nonzero;stroke:none"
         d="m 1535.8,626.66 c 0,21.602 -10.01,35.805 -26.61,35.805 -15,0 -25.21,-10.602 -28.61,-13.805 v -45.008 c 4.4,-4 14.6,-13.004 27.01,-13.004 15.6,0 28.21,13.805 28.21,36.012 z m -67.22,46.012 h 12 v -11.008 c 3.21,2.004 14.6,12.203 29.21,12.203 27.81,0 38.01,-25.207 38.01,-47.008 0,-21.406 -12.4,-47.41 -39.81,-47.41 -13,0 -23.4,8.403 -27.41,11.399 v -58.012 h -12 v 139.836" /><path
         id="path130"
         style="fill:#be1567;fill-opacity:1;fill-rule:nonzero;stroke:none"
         d="m 1603.79,624.656 h 0.19 z m 0,0 c -15.61,-4.195 -30.22,-10.199 -30.22,-21.402 0,-10.203 6.2,-13.602 13.41,-13.602 7.2,0 17.4,6.203 24.6,11.403 v 25.804 l -7.6,-2.203 0.2,0.203 c -0.2,0 -0.2,0 -0.39,-0.203 z m 9.2,-34.008 c -5.21,-3.796 -15.61,-11.199 -27.82,-11.199 -15.8,0 -23.8,10.403 -23.8,22.805 0,19.605 17.01,25.809 41.41,32.41 l 8.8,2.395 v 8.804 c 0,12.203 -6.4,17.004 -17,17.004 -10.2,0 -21.01,-9.402 -22.21,-10.402 l -6.99,8.598 c 3.59,2.804 13.19,12.804 29.2,12.804 15.81,0 29,-7.398 29,-25.804 v -51.012 l 11.01,-9.801 -8.21,-9.004 -13.39,12.402" /><path
         id="path132"
         style="fill:#be1567;fill-opacity:1;fill-rule:nonzero;stroke:none"
         d="m 1651.78,672.672 h 12 v -13.004 c 2.2,2.598 13.01,14.199 23.6,14.199 8.41,0 11.61,-1.797 14.81,-3.199 l -5,-11.801 c -3.61,1.801 -6.61,2.797 -11.61,2.797 -7.99,0 -17.8,-8.797 -21.8,-15.398 v -65.618 h -12 v 92.024" /><path
         id="path134"
         style="fill:#be1567;fill-opacity:1;fill-rule:nonzero;stroke:none"
         d="m 1731.78,603.453 v 58.012 h -16.01 v 11.207 h 15.8 v 17.199 h 12 v -17.199 h 24.21 v -11.207 h -24 v -56.012 c 0,-13.601 5.59,-14.805 9.6,-14.805 7.8,0 13,3.606 13,3.606 l 4.6,-10.008 c 0,0 -6.8,-4.797 -18.2,-4.797 -14.61,0 -21,7.801 -21,24.004" /><path
         id="path136"
         style="fill:#be1567;fill-opacity:1;fill-rule:nonzero;stroke:none"
         d="m 1787.98,672.672 h 12 v -12.606 c 11.2,10 23.6,13.801 30.8,13.801 13.01,0 20.01,-6.402 22.61,-14.199 3.8,3.398 15.6,14 31.4,14 17.21,0 24.01,-11.203 24.01,-21.602 v -71.418 h -12.01 v 68.813 c 0,10.406 -7.99,12.805 -12.99,12.805 -12.41,0 -25.81,-12.004 -29.01,-15.801 v -65.817 h -12.2 v 68.813 c 0,10.406 -8,12.805 -12.81,12.805 -13.8,0 -28.6,-14.004 -29.8,-16 v -65.618 h -12 v 92.024" /><path
         id="path138"
         style="fill:#be1567;fill-opacity:1;fill-rule:nonzero;stroke:none"
         d="m 1988.98,637.262 c 0,13 -6.79,25.203 -21.2,25.203 -16.81,0 -25.2,-14.801 -27.01,-25.203 z m -61.81,-11.602 c 0,26.004 13.8,48.207 40.81,48.207 24.4,0 33.61,-18.004 33.61,-40.207 v -7.199 h -62.02 c 0,-18.805 9.61,-35.613 30.6,-35.613 9.61,0 18.22,3.804 22.82,7.004 0,0.199 5.8,-10.403 5.8,-10.403 -5,-3 -15.21,-8 -29.41,-8 -27.41,0 -42.21,21.004 -42.21,46.211" /><path
         id="path140"
         style="fill:#be1567;fill-opacity:1;fill-rule:nonzero;stroke:none"
         d="m 2021.17,672.672 h 12 v -12.805 c 7.2,6.602 19.01,14 30.21,14 19.4,0 27.2,-11.402 27.2,-23.804 v -69.415 h -12 v 65.016 c 0,12.203 -7.21,16.801 -15.81,16.801 -13.8,0 -28.4,-14.004 -29.6,-16 v -65.817 h -12 v 92.024" /><path
         id="path142"
         style="fill:#be1567;fill-opacity:1;fill-rule:nonzero;stroke:none"
         d="m 2123.57,603.453 v 58.012 h -16 v 11.207 h 15.8 v 17.199 h 12 v -17.199 h 24.21 v -11.207 h -24.01 v -56.012 c 0,-13.601 5.6,-14.805 9.6,-14.805 7.81,0 13.01,3.606 13.01,3.606 l 4.6,-10.008 c 0,0 -6.81,-4.797 -18.2,-4.797 -14.61,0 -21.01,7.801 -21.01,24.004" /><path
         id="path144"
         style="fill:#be1567;fill-opacity:1;fill-rule:nonzero;stroke:none"
         d="m 2282.18,626.66 c 0,25.805 -17.41,35.805 -30.4,35.805 -12.42,0 -31.42,-9.199 -31.42,-36.004 0,-25.809 18.01,-35.813 31.01,-35.813 12.41,0 30.81,9.204 30.81,36.012 z m -74.42,-0.199 c 0,20.004 13.4,47.406 43.81,47.406 30.61,0 43.21,-27.203 43.21,-47.207 0,-20.004 -12.6,-47.211 -43,-47.211 -31.42,0 -44.02,26.203 -44.02,47.012" /><path
         id="path146"
         style="fill:#be1567;fill-opacity:1;fill-rule:nonzero;stroke:none"
         d="m 2323.96,661.465 h -16 v 11.207 h 16 v 28.801 c 0,14.406 9.01,24.804 23.61,24.804 11.4,0 18.39,-4.199 18.39,-4.199 l -4.79,-10.398 c 0,0 -5.21,3.398 -13.01,3.398 -3.99,0 -12.4,-2.601 -12.4,-14.805 v -27.601 h 22.21 v -11.008 h -22.01 v -81.016 h -12 v 80.817" /><path
         id="path148"
         style="fill:#be1567;fill-opacity:1;fill-rule:nonzero;stroke:none"
         d="m 1250.79,509.281 h 72.01 v -12.207 h -59.21 v -48.609 h 54.81 v -12 h -54.81 v -52.813 h 59.21 v -12.004 h -72.01 v 137.633" /><path
         id="path150"
         style="fill:#be1567;fill-opacity:1;fill-rule:nonzero;stroke:none"
         d="m 1348.18,515.879 h 12 V 371.648 h -12 v 144.231" /><path
         id="path152"
         style="fill:#be1567;fill-opacity:1;fill-rule:nonzero;stroke:none"
         d="m 1446.39,428.262 c 0,13.004 -6.79,25.203 -21.2,25.203 -16.8,0 -25.2,-14.797 -27.01,-25.203 z m -61.81,-11.602 c 0,26.004 13.81,48.207 40.81,48.207 24.4,0 33.61,-18.004 33.61,-40.203 v -7.203 h -62.02 c 0,-18.805 9.61,-35.609 30.61,-35.609 9.61,0 18.21,3.8 22.81,7 0,0.199 5.8,-10.399 5.8,-10.399 -5,-3.004 -15.21,-8.004 -29.41,-8.004 -27.41,0 -42.21,21.004 -42.21,46.211" /><path
         id="path154"
         style="fill:#be1567;fill-opacity:1;fill-rule:nonzero;stroke:none"
         d="m 1473.58,417.66 c 0,30.207 21.41,47.207 43.21,47.207 11.4,0 20.6,-3.797 26.8,-7.996 0,0 -5.8,-10.008 -5.8,-10.207 -5,3.606 -13,6.801 -20.4,6.801 -18.01,0 -31.41,-14.203 -31.41,-36.606 0,-23.402 14.81,-35.211 30.81,-35.211 9.8,0 18,4.407 22.6,7.606 l 6.01,-10.203 c -5,-3 -15.01,-8.602 -29.21,-8.602 -26.6,0 -42.61,22.008 -42.61,47.211" /><path
         id="path156"
         style="fill:#be1567;fill-opacity:1;fill-rule:nonzero;stroke:none"
         d="m 1568.38,394.453 v 58.012 h -16.01 v 11.207 h 15.8 v 17.203 h 12 v -17.203 h 24.21 v -11.207 h -24 v -56.012 c 0,-13.601 5.59,-14.805 9.6,-14.805 7.8,0 13.01,3.606 13.01,3.606 l 4.6,-10.004 c 0,0 -6.81,-4.801 -18.21,-4.801 -14.61,0 -21,7.805 -21,24.004" /><path
         id="path158"
         style="fill:#be1567;fill-opacity:1;fill-rule:nonzero;stroke:none"
         d="m 1625.77,463.672 h 12 v -13.004 c 2.21,2.598 13.01,14.199 23.6,14.199 8.41,0 11.62,-1.797 14.81,-3.199 l -5,-11.801 c -3.6,1.797 -6.6,2.797 -11.6,2.797 -8,0 -17.8,-8.797 -21.81,-15.398 v -65.618 h -12 v 92.024" /><path
         id="path160"
         style="fill:#be1567;fill-opacity:1;fill-rule:nonzero;stroke:none"
         d="m 1694.77,463.672 h 12.2 v -92.024 h -12.2 z m -2.8,29.805 c 0,5 3.99,9.003 9,9.003 5,0 9,-4.003 9,-9.003 0,-5 -4,-9.204 -9,-9.204 -5.01,0 -9,4.204 -9,9.204" /><path
         id="path162"
         style="fill:#be1567;fill-opacity:1;fill-rule:nonzero;stroke:none"
         d="m 1734.97,417.66 c 0,30.207 21.4,47.207 43.2,47.207 11.41,0 20.61,-3.797 26.81,-7.996 0,0 -5.8,-10.008 -5.8,-10.207 -5,3.606 -13,6.801 -20.4,6.801 -18.01,0 -31.41,-14.203 -31.41,-36.606 0,-23.402 14.81,-35.211 30.8,-35.211 9.81,0 18.01,4.407 22.61,7.606 l 6.01,-10.203 c -5,-3 -15.01,-8.602 -29.21,-8.602 -26.61,0 -42.61,22.008 -42.61,47.211" /><path
         id="path164"
         style="fill:#be1567;fill-opacity:1;fill-rule:nonzero;stroke:none"
         d="m 1859.78,415.66 h 0.2 z m 0,0 c -15.6,-4.199 -30.21,-10.199 -30.21,-21.406 0,-10.203 6.2,-13.602 13.41,-13.602 7.19,0 17.4,6.203 24.6,11.403 v 25.804 l -7.6,-2.199 0.19,0.199 c -0.19,0 -0.19,0 -0.39,-0.199 z m 9.2,-34.012 c -5.2,-3.796 -15.6,-11.199 -27.81,-11.199 -15.8,0 -23.8,10.406 -23.8,22.809 0,19.601 17,25.805 41.41,32.406 l 8.8,2.399 v 8.8 c 0,12.203 -6.4,17.004 -17.01,17.004 -10.19,0 -21,-9.398 -22.2,-10.402 l -7,8.601 c 3.6,2.801 13.2,12.801 29.2,12.801 15.81,0 29.01,-7.398 29.01,-25.804 v -51.012 l 11,-9.797 -8.2,-9.008 -13.4,12.402" /><path
         id="path166"
         style="fill:#be1567;fill-opacity:1;fill-rule:nonzero;stroke:none"
         d="m 1912.57,515.879 h 12 V 371.648 h -12 v 144.231" /><path
         id="path168"
         style="fill:#be1567;fill-opacity:1;fill-rule:nonzero;stroke:none"
         d="m 1994.57,509.281 h 72.01 v -12.207 h -59.21 v -48.609 h 54.81 v -12 h -54.81 v -52.813 h 59.21 v -12.004 h -72.01 v 137.633" /><path
         id="path170"
         style="fill:#be1567;fill-opacity:1;fill-rule:nonzero;stroke:none"
         d="m 2091.96,463.672 h 12 v -12.805 c 7.2,6.602 19.01,14 30.21,14 19.4,0 27.2,-11.402 27.2,-23.804 v -69.415 h -12 v 65.016 c 0,12.203 -7.2,16.801 -15.8,16.801 -13.81,0 -28.41,-14.004 -29.61,-16 v -65.817 h -12 v 92.024" /><path
         id="path172"
         style="fill:#be1567;fill-opacity:1;fill-rule:nonzero;stroke:none"
         d="m 2238.17,433.461 c 0,11.406 -9,20.805 -20.2,20.805 -11.2,0 -20.4,-9.399 -20.4,-20.805 0,-11.402 9.2,-20.602 20.4,-20.602 11.2,0 20.2,9.2 20.2,20.602 z m 7,-76.617 c 0,12.804 -12.4,23.211 -26.8,23.211 -14.2,0 -26.81,-10.407 -26.81,-23.211 0,-12.602 12.4,-23 26.61,-23 14.41,0 27,10.398 27,23 z m -65.81,-0.199 c 0,24.21 26.2,32.609 33.21,32.609 v 13.402 c -14.81,2.602 -26.81,15.407 -26.81,30.805 0,17.406 15.01,31.406 32.21,31.406 6.2,0 12.2,-1.996 17.2,-5.199 l 29.61,5 v -12.004 h -21.4 c 4.2,-5.398 6.79,-12 6.79,-19.203 0,-16 -12,-28.402 -27.2,-30.805 v -13.402 c 8.2,0 34.61,-8.199 34.61,-32.609 0,-17.403 -17.01,-32.801 -39.41,-32.801 -23.01,0 -38.81,16.398 -38.81,32.801" /><path
         id="path174"
         style="fill:#be1567;fill-opacity:1;fill-rule:nonzero;stroke:none"
         d="m 2285.56,463.672 h 12.2 v -92.024 h -12.2 z m -2.8,29.805 c 0,5 4,9.003 9.01,9.003 5,0 8.99,-4.003 8.99,-9.003 0,-5 -3.99,-9.204 -8.99,-9.204 -5.01,0 -9.01,4.204 -9.01,9.204" /><path
         id="path176"
         style="fill:#be1567;fill-opacity:1;fill-rule:nonzero;stroke:none"
         d="m 2332.76,463.672 h 12 v -12.805 c 7.2,6.602 19.01,14 30.21,14 19.4,0 27.21,-11.402 27.21,-23.804 v -69.415 h -12.01 v 65.016 c 0,12.203 -7.2,16.801 -15.8,16.801 -13.81,0 -28.41,-14.004 -29.61,-16 v -65.817 h -12 v 92.024" /><path
         id="path178"
         style="fill:#be1567;fill-opacity:1;fill-rule:nonzero;stroke:none"
         d="m 2486.37,428.262 c 0,13.004 -6.8,25.203 -21.21,25.203 -16.8,0 -25.2,-14.797 -27.01,-25.203 z m -61.82,-11.602 c 0,26.004 13.81,48.207 40.81,48.207 24.4,0 33.61,-18.004 33.61,-40.203 v -7.203 h -62.02 c 0,-18.805 9.61,-35.609 30.61,-35.609 9.61,0 18.21,3.8 22.81,7 0,0.199 5.8,-10.399 5.8,-10.399 -5,-3.004 -15.21,-8.004 -29.4,-8.004 -27.42,0 -42.22,21.004 -42.22,46.211" /><path
         id="path180"
         style="fill:#be1567;fill-opacity:1;fill-rule:nonzero;stroke:none"
         d="m 2574.76,428.262 c 0,13.004 -6.79,25.203 -21.2,25.203 -16.8,0 -25.2,-14.797 -27.01,-25.203 z m -61.81,-11.602 c 0,26.004 13.81,48.207 40.81,48.207 24.4,0 33.61,-18.004 33.61,-40.203 v -7.203 h -62.02 c 0,-18.805 9.61,-35.609 30.61,-35.609 9.6,0 18.21,3.8 22.81,7 0,0.199 5.8,-10.399 5.8,-10.399 -5,-3.004 -15.21,-8.004 -29.41,-8.004 -27.41,0 -42.21,21.004 -42.21,46.211" /><path
         id="path182"
         style="fill:#be1567;fill-opacity:1;fill-rule:nonzero;stroke:none"
         d="m 2609.15,463.672 h 12 v -13.004 c 2.21,2.598 13.01,14.199 23.6,14.199 8.41,0 11.62,-1.797 14.81,-3.199 l -5,-11.801 c -3.61,1.797 -6.6,2.797 -11.6,2.797 -8,0 -17.81,-8.797 -21.81,-15.398 v -65.618 h -12 v 92.024" /><path
         id="path184"
         style="fill:#be1567;fill-opacity:1;fill-rule:nonzero;stroke:none"
         d="m 2678.15,463.672 h 12.2 v -92.024 h -12.2 z m -2.8,29.805 c 0,5 3.99,9.003 9,9.003 5,0 9,-4.003 9,-9.003 0,-5 -4,-9.204 -9,-9.204 -5.01,0 -9,4.204 -9,9.204" /><path
         id="path186"
         style="fill:#be1567;fill-opacity:1;fill-rule:nonzero;stroke:none"
         d="m 2725.35,463.672 h 12 v -12.805 c 7.2,6.602 19.01,14 30.21,14 19.4,0 27.2,-11.402 27.2,-23.804 v -69.415 h -12 v 65.016 c 0,12.203 -7.21,16.801 -15.81,16.801 -13.8,0 -28.4,-14.004 -29.6,-16 v -65.817 h -12 v 92.024" /><path
         id="path188"
         style="fill:#be1567;fill-opacity:1;fill-rule:nonzero;stroke:none"
         d="m 2871.55,433.461 c 0,11.406 -9,20.805 -20.2,20.805 -11.21,0 -20.4,-9.399 -20.4,-20.805 0,-11.402 9.19,-20.602 20.4,-20.602 11.2,0 20.2,9.2 20.2,20.602 z m 7,-76.617 c 0,12.804 -12.4,23.211 -26.8,23.211 -14.2,0 -26.81,-10.407 -26.81,-23.211 0,-12.602 12.4,-23 26.61,-23 14.4,0 27,10.398 27,23 z m -65.81,-0.199 c 0,24.21 26.2,32.609 33.21,32.609 v 13.402 c -14.81,2.602 -26.81,15.407 -26.81,30.805 0,17.406 15.01,31.406 32.21,31.406 6.2,0 12.2,-1.996 17.2,-5.199 l 29.61,5 v -12.004 h -21.4 c 4.19,-5.398 6.79,-12 6.79,-19.203 0,-16 -12,-28.402 -27.2,-30.805 v -13.402 c 8.2,0 34.6,-8.199 34.6,-32.609 0,-17.403 -17,-32.801 -39.4,-32.801 -23.01,0 -38.81,16.398 -38.81,32.801" /></g></g></svg>