<svg xmlns="http://www.w3.org/2000/svg" viewBox="154.13 147.66 188.35 118.91">
  <defs>
    <linearGradient id="a" x1="290.3" y1="35.22" x2="265.11" y2="152.76" gradientUnits="userSpaceOnUse" gradientTransform="matrix(1, 0, 0, 1, 51.651418, 112.956319)">
      <stop offset="0" stop-color="#bf2169"/>
      <stop offset="0.19" stop-color="#b62165"/>
      <stop offset="0.49" stop-color="#9e215b"/>
      <stop offset="0.88" stop-color="#76204b"/>
      <stop offset="1" stop-color="#682045"/>
    </linearGradient>
    <linearGradient id="b" x1="276.68" y1="32.86" x2="182.58" y2="131.93" gradientUnits="userSpaceOnUse" gradientTransform="matrix(1, 0, 0, 1, 51.651418, 112.956319)">
      <stop offset="0" stop-color="#fbd5e0"/>
      <stop offset="0.35" stop-color="#bf2169"/>
      <stop offset="1" stop-color="#682045"/>
    </linearGradient>
  </defs>
  <path class="b" d="M 337.712 148.006 L 188.652 186.756 C 188.339 186.843 188.04 186.971 187.762 187.136 C 187.487 187.324 187.247 187.557 187.052 187.826 L 154.732 230.556 C 154.645 230.69 154.603 230.847 154.612 231.006 C 154.618 231.25 154.779 231.464 155.012 231.536 L 187.402 238.536 L 189.302 239.196 L 195.302 240.506 L 199.442 241.076 L 240.162 249.956 L 243.822 251.056 L 248.502 252.056 L 251.702 252.456 L 315.262 266.186 L 337.712 148.006 Z" style="fill: rgb(255, 255, 255);" transform="matrix(0.9999999999999999, 0, 0, 0.9999999999999999, 0, 0)"/>
  <path class="c" d="M 342.312 163.036 C 342.415 163.408 342.472 163.791 342.482 164.176 C 342.473 164.515 342.422 164.85 342.332 165.176 L 316.652 265.566 C 316.502 266.156 316.172 266.566 315.922 266.566 L 315.502 266.476 L 338.042 147.656 L 342.312 163.036 Z" style="fill: url('#a');" transform="matrix(0.9999999999999999, 0, 0, 0.9999999999999999, 0, 0)"/>
  <path class="d" d="M 315.472 266.476 L 338.042 147.656 L 188.652 186.506 C 188.3 186.593 187.963 186.731 187.652 186.916 C 187.347 187.12 187.083 187.378 186.872 187.676 L 154.322 230.676 C 153.967 231.029 154.127 231.634 154.609 231.765 C 154.653 231.776 154.697 231.784 154.742 231.786 L 189.302 239.246 C 186.85 238.404 184.638 236.984 182.852 235.106 C 179.675 231.163 178.333 226.052 179.162 221.056 C 181.042 207.446 190.822 201.346 199.862 201.346 C 203.882 201.201 207.877 202.05 211.492 203.816 L 210.962 209.876 L 206.512 209.876 L 206.712 207.536 C 205.082 206.536 199.272 205.606 194.482 207.536 C 188.852 210.126 186.432 216.806 186.112 221.296 C 185.892 224.496 186.342 228.686 188.592 231.716 C 190.842 234.746 197.162 237.096 204.592 234.606 C 207.892 233.446 209.372 236.866 209.372 236.866 L 209.022 237.056 C 204.93 239.591 200.157 240.806 195.352 240.536 L 243.822 250.986 L 250.572 238.636 L 243.032 215.056 L 239.892 215.056 L 240.262 210.796 L 248.262 210.796 L 254.732 230.986 L 263.672 214.636 C 264.849 212.181 267.382 210.669 270.102 210.796 L 271.742 210.796 L 249.222 250.956 C 249.013 251.343 248.772 251.711 248.502 252.056 L 315.472 266.476 Z M 212.262 210.816 L 221.962 210.816 L 219.362 240.646 C 219.362 240.646 212.992 240.966 213.552 234.486 L 215.242 215.076 L 211.892 215.076 L 212.262 210.816 Z M 222.542 205.526 C 222.36 207.3 220.884 208.66 219.102 208.696 C 217.377 208.731 216.014 207.241 216.202 205.526 C 216.393 203.755 217.87 202.401 219.652 202.366 C 221.371 202.332 222.729 203.817 222.542 205.526 Z M 227.542 205.946 L 234.032 204.376 L 233.462 210.816 L 238.342 210.816 L 237.982 214.946 L 233.112 214.946 L 231.652 231.406 C 231.433 232.746 231.628 234.121 232.212 235.346 C 232.729 236.143 233.645 236.59 234.592 236.506 C 236.584 236.39 238.233 238.034 238.122 240.026 C 236.586 240.371 235.024 240.582 233.452 240.656 C 230.452 240.656 228.202 239.836 226.882 238.196 C 225.562 236.556 225.072 234.086 225.362 230.746 L 227.542 205.946 Z M 302.952 223.716 C 302.803 226.347 302.377 228.955 301.682 231.496 C 301.053 233.298 300.063 234.952 298.772 236.356 C 296.212 239.216 292.492 240.666 287.772 240.666 C 283.052 240.666 279.372 239.386 277.282 236.866 C 275.192 234.346 274.672 230.426 275.132 225.116 L 276.372 210.806 L 272.372 210.806 L 272.742 206.606 L 283.052 206.606 L 282.712 210.806 L 281.572 223.596 C 281.312 225.921 281.279 228.265 281.472 230.596 C 281.583 231.824 282.045 232.993 282.802 233.966 C 284.23 235.677 286.387 236.605 288.612 236.466 C 290.888 236.533 293.097 235.691 294.752 234.126 C 296.342 232.666 297.302 229.506 297.752 224.726 L 298.992 210.436 C 299.228 208.168 301.205 206.487 303.482 206.616 L 304.482 206.616 L 302.952 223.716 Z" style="fill: url('#b');" transform="matrix(0.9999999999999999, 0, 0, 0.9999999999999999, 0, 0)"/>
</svg>