<svg xmlns="http://www.w3.org/2000/svg" viewBox="108.15 147.66 234.33 147.73">
  <defs>
    <linearGradient id="a" x1="290.3" y1="35.22" x2="265.11" y2="152.76" gradientUnits="userSpaceOnUse" gradientTransform="matrix(1, 0, 0, 1, 51.651418, 112.956319)">
      <stop offset="0" stop-color="#bf2169"/>
      <stop offset="0.19" stop-color="#b62165"/>
      <stop offset="0.49" stop-color="#9e215b"/>
      <stop offset="0.88" stop-color="#76204b"/>
      <stop offset="1" stop-color="#682045"/>
    </linearGradient>
    <linearGradient id="b" x1="276.68" y1="32.86" x2="182.58" y2="131.93" gradientUnits="userSpaceOnUse" gradientTransform="matrix(1, 0, 0, 1, 51.651418, 112.956319)">
      <stop offset="0" stop-color="#fbd5e0"/>
      <stop offset="0.35" stop-color="#bf2169"/>
      <stop offset="1" stop-color="#682045"/>
    </linearGradient>
  </defs>
  <path class="a" d="M 116.012 283.956 C 115.41 283.169 114.472 282.713 113.482 282.726 C 111.251 282.807 109.519 284.697 109.632 286.926 C 109.477 289.17 111.233 291.086 113.482 291.126 C 114.628 291.155 115.717 290.626 116.402 289.706 L 117.302 290.466 C 116.401 291.654 114.97 292.317 113.482 292.236 C 109.394 292.236 106.839 287.811 108.883 284.271 C 109.832 282.628 111.585 281.616 113.482 281.616 C 114.856 281.555 116.178 282.144 117.052 283.206 L 116.012 283.956 Z" style="fill: rgb(255, 255, 255);" transform="matrix(0.9999999999999999, 0, 0, 0.9999999999999999, 0, 0)"/>
  <path class="a" d="M 144.102 288.096 C 144.102 290.286 143.102 292.206 140.292 292.206 C 137.482 292.206 136.482 290.286 136.482 288.096 L 136.482 281.846 L 137.652 281.846 L 137.652 287.956 C 137.652 289.586 138.262 291.126 140.272 291.126 C 142.282 291.126 142.882 289.586 142.882 287.956 L 142.882 281.876 L 144.082 281.876 L 144.102 288.096 Z" style="fill: rgb(255, 255, 255);" transform="matrix(0.9999999999999999, 0, 0, 0.9999999999999999, 0, 0)"/>
  <path class="a" d="M 119.232 281.846 C 119.679 281.846 120.042 282.209 120.042 282.656 C 120.111 283.284 119.476 283.751 118.897 283.498 C 118.569 283.354 118.372 283.013 118.412 282.656 C 118.417 282.207 118.783 281.846 119.232 281.846 M 118.652 285.266 L 119.762 285.266 L 119.762 291.956 L 118.652 291.956 L 118.652 285.266 Z" style="fill: rgb(255, 255, 255);" transform="matrix(0.9999999999999999, 0, 0, 0.9999999999999999, 0, 0)"/>
  <path class="a" d="M 125.352 286.206 L 123.352 286.206 L 123.352 289.556 C 123.352 290.406 123.352 291.096 124.352 291.096 C 124.698 291.098 125.041 291.019 125.352 290.866 L 125.352 291.866 C 124.942 292.03 124.503 292.112 124.062 292.106 C 122.472 292.106 122.222 291.256 122.222 289.866 L 122.222 286.196 L 120.812 286.196 L 120.812 285.256 L 122.272 285.256 L 122.272 283.366 L 123.382 283.366 L 123.382 285.256 L 125.382 285.256 L 125.352 286.206 Z" style="fill: rgb(255, 255, 255);" transform="matrix(0.9999999999999999, 0, 0, 0.9999999999999999, 0, 0)"/>
  <path class="a" d="M 129.752 293.476 C 129.322 294.606 128.872 295.376 127.532 295.376 C 127.189 295.391 126.848 295.329 126.532 295.196 L 126.672 294.196 C 126.927 294.278 127.194 294.316 127.462 294.306 C 128.192 294.306 128.462 293.866 128.702 293.206 L 129.162 291.956 L 126.392 285.226 L 127.652 285.226 L 129.712 290.466 L 131.712 285.226 L 132.922 285.226 L 129.752 293.476 Z" style="fill: rgb(255, 255, 255);" transform="matrix(0.9999999999999999, 0, 0, 0.9999999999999999, 0, 0)"/>
  <path class="a" d="M 145.562 286.856 C 145.562 286.236 145.562 285.716 145.562 285.266 L 146.562 285.266 C 146.562 285.626 146.562 285.996 146.562 286.366 C 147.004 285.555 147.868 285.063 148.792 285.096 C 150.542 285.096 151.332 286.206 151.332 287.826 L 151.332 291.956 L 150.272 291.956 L 150.272 287.956 C 150.272 286.846 149.792 286.146 148.752 286.146 C 147.312 286.146 146.682 287.146 146.682 288.716 L 146.682 291.956 L 145.562 291.956 L 145.562 286.856 Z" style="fill: rgb(255, 255, 255);" transform="matrix(0.9999999999999999, 0, 0, 0.9999999999999999, 0, 0)"/>
  <path class="a" d="M 153.502 281.846 C 153.949 281.846 154.312 282.209 154.312 282.656 C 154.312 283.28 153.637 283.67 153.097 283.358 C 152.846 283.213 152.692 282.946 152.692 282.656 C 152.692 282.209 153.054 281.846 153.502 281.846 M 152.942 285.266 L 154.062 285.266 L 154.062 291.956 L 152.942 291.956 L 152.942 285.266 Z" style="fill: rgb(255, 255, 255);" transform="matrix(0.9999999999999999, 0, 0, 0.9999999999999999, 0, 0)"/>
  <polygon class="a" points="159.382 291.956 158.162 291.956 155.432 285.276 156.732 285.276 158.812 290.506 158.842 290.506 160.822 285.276 162.022 285.276 159.382 291.956" style="fill: rgb(255, 255, 255);" transform="matrix(0.9999999999999999, 0, 0, 0.9999999999999999, 0, 0)"/>
  <path class="a" d="M 175.462 290.196 C 175.847 290.762 176.488 291.099 177.172 291.096 C 177.872 291.096 178.642 290.796 178.642 290.096 C 178.642 289.396 177.922 289.196 177.212 289.036 C 175.942 288.756 174.862 288.486 174.862 287.096 C 174.862 285.706 176.112 285.096 177.352 285.096 C 178.277 285.036 179.156 285.505 179.622 286.306 L 178.702 286.926 C 178.408 286.422 177.865 286.116 177.282 286.126 C 176.672 286.126 175.972 286.426 175.972 287.056 C 175.972 287.686 176.772 287.846 177.652 288.056 C 178.842 288.286 179.832 288.706 179.832 290.056 C 179.832 291.566 178.492 292.146 177.172 292.146 C 176.144 292.238 175.147 291.763 174.572 290.906 L 175.462 290.196 Z" style="fill: rgb(255, 255, 255);" transform="matrix(0.9999999999999999, 0, 0, 0.9999999999999999, 0, 0)"/>
  <path class="a" d="M 168.652 290.736 C 167.952 291.678 166.821 292.198 165.652 292.116 C 163.711 292.167 162.144 290.544 162.262 288.606 C 162.168 286.662 163.746 285.048 165.692 285.096 C 167.572 285.096 168.862 286.386 168.862 288.596 L 168.862 288.956 L 163.462 288.956 C 163.514 290.135 164.472 291.071 165.652 291.096 C 166.484 291.141 167.284 290.765 167.782 290.096 L 168.652 290.736 Z M 167.652 288.006 C 167.667 286.914 166.741 286.044 165.652 286.126 C 164.535 286.062 163.567 286.893 163.462 288.006 L 167.652 288.006 Z" style="fill: rgb(255, 255, 255);" transform="matrix(0.9999999999999999, 0, 0, 0.9999999999999999, 0, 0)"/>
  <path class="a" d="M 170.322 286.856 C 170.322 286.236 170.262 285.716 170.262 285.266 L 171.322 285.266 C 171.322 285.626 171.322 285.996 171.322 286.366 C 171.764 285.555 172.628 285.063 173.552 285.096 C 173.709 285.095 173.864 285.122 174.012 285.176 L 173.942 286.296 C 173.747 286.236 173.545 286.206 173.342 286.206 C 171.982 286.206 171.342 287.206 171.342 288.696 L 171.342 291.956 L 170.232 291.956 L 170.322 286.856 Z" style="fill: rgb(255, 255, 255);" transform="matrix(0.9999999999999999, 0, 0, 0.9999999999999999, 0, 0)"/>
  <path class="a" d="M 181.652 281.846 C 182.101 281.846 182.466 282.207 182.472 282.656 C 182.483 283.114 182.109 283.488 181.652 283.476 C 181.196 283.488 180.824 283.112 180.842 282.656 C 180.842 282.209 181.204 281.846 181.652 281.846 M 181.102 285.266 L 182.212 285.266 L 182.212 291.956 L 181.102 291.956 L 181.102 285.266 Z" style="fill: rgb(255, 255, 255);" transform="matrix(0.9999999999999999, 0, 0, 0.9999999999999999, 0, 0)"/>
  <path class="a" d="M 188.102 286.206 L 186.102 286.206 L 186.102 289.556 C 186.102 290.406 186.102 291.096 187.102 291.096 C 187.448 291.097 187.79 291.018 188.102 290.866 L 188.102 291.866 C 187.688 292.03 187.246 292.112 186.802 292.106 C 185.222 292.106 184.962 291.256 184.962 289.866 L 184.962 286.196 L 183.512 286.196 L 183.512 285.256 L 184.962 285.256 L 184.962 283.366 L 186.072 283.366 L 186.072 285.256 L 188.072 285.256 L 188.102 286.206 Z" style="fill: rgb(255, 255, 255);" transform="matrix(0.9999999999999999, 0, 0, 0.9999999999999999, 0, 0)"/>
  <path class="a" d="M 192.282 293.476 C 191.842 294.606 191.402 295.376 190.052 295.376 C 189.709 295.393 189.367 295.331 189.052 295.196 L 189.192 294.196 C 189.443 294.278 189.707 294.315 189.972 294.306 C 190.702 294.306 190.972 293.866 191.212 293.206 L 191.652 291.956 L 188.882 285.226 L 190.182 285.226 L 192.252 290.466 L 194.252 285.226 L 195.472 285.226 L 192.282 293.476 Z" style="fill: rgb(255, 255, 255);" transform="matrix(0.9999999999999999, 0, 0, 0.9999999999999999, 0, 0)"/>
  <path class="a" d="M 202.122 285.096 C 204.823 285.135 206.47 288.084 205.086 290.404 C 203.702 292.725 200.325 292.677 199.007 290.318 C 198.715 289.794 198.562 289.205 198.562 288.606 C 198.495 286.621 200.137 285.002 202.122 285.096 M 202.122 291.096 C 204.036 291.189 205.333 289.174 204.456 287.47 C 203.578 285.765 201.185 285.65 200.148 287.262 C 199.89 287.663 199.752 288.129 199.752 288.606 C 199.664 289.969 200.757 291.117 202.122 291.096" style="fill: rgb(255, 255, 255);" transform="matrix(0.9999999999999999, 0, 0, 0.9999999999999999, 0, 0)"/>
  <path class="a" d="M 207.652 286.206 L 206.152 286.206 L 206.152 285.266 L 207.652 285.266 L 207.652 283.776 C 207.652 282.146 208.222 280.986 210.022 280.986 C 210.315 280.981 210.606 281.043 210.872 281.166 L 210.722 282.166 C 210.477 282.081 210.221 282.034 209.962 282.026 C 208.802 282.026 208.762 282.866 208.762 284.026 L 208.762 285.276 L 210.392 285.276 L 210.392 286.216 L 208.762 286.216 L 208.762 291.956 L 207.652 291.956 L 207.652 286.206 Z" style="fill: rgb(255, 255, 255);" transform="matrix(0.9999999999999999, 0, 0, 0.9999999999999999, 0, 0)"/>
  <polygon class="a" points="214.922 281.846 216.122 281.846 216.122 286.126 221.512 286.126 221.512 281.846 222.712 281.846 222.712 291.956 221.512 291.956 221.512 287.246 216.122 287.246 216.122 291.956 214.922 291.956 214.922 281.846" style="fill: rgb(255, 255, 255);" transform="matrix(0.9999999999999999, 0, 0, 0.9999999999999999, 0, 0)"/>
  <path class="a" d="M 227.652 285.096 C 230.353 285.143 231.992 288.096 230.601 290.413 C 229.21 292.729 225.833 292.671 224.522 290.309 C 224.233 289.788 224.082 289.202 224.082 288.606 C 224.015 286.617 225.664 284.996 227.652 285.096 M 227.652 291.096 C 229.566 291.189 230.863 289.174 229.986 287.47 C 229.108 285.765 226.715 285.65 225.678 287.262 C 225.42 287.663 225.282 288.129 225.282 288.606 C 225.194 289.969 226.287 291.117 227.652 291.096" style="fill: rgb(255, 255, 255);" transform="matrix(0.9999999999999999, 0, 0, 0.9999999999999999, 0, 0)"/>
  <path class="a" d="M 232.652 286.856 C 232.652 286.236 232.652 285.716 232.652 285.266 L 233.652 285.266 C 233.652 285.626 233.652 285.996 233.652 286.366 C 234.094 285.555 234.958 285.063 235.882 285.096 C 237.632 285.096 238.412 286.206 238.412 287.826 L 238.412 291.956 L 237.302 291.956 L 237.302 287.956 C 237.302 286.846 236.822 286.146 235.782 286.146 C 234.332 286.146 233.712 287.146 233.712 288.716 L 233.712 291.956 L 232.652 291.956 L 232.652 286.856 Z" style="fill: rgb(255, 255, 255);" transform="matrix(0.9999999999999999, 0, 0, 0.9999999999999999, 0, 0)"/>
  <path class="a" d="M 246.812 291.646 C 246.812 294.066 245.512 295.376 243.172 295.376 C 241.948 295.437 240.755 294.976 239.892 294.106 L 240.692 293.186 C 241.299 293.93 242.212 294.356 243.172 294.346 C 245.172 294.346 245.702 293.066 245.702 291.646 L 245.702 290.796 C 245.18 291.587 244.289 292.056 243.342 292.036 C 241.384 292.148 239.748 290.566 239.792 288.606 C 239.657 286.599 241.336 284.939 243.342 285.096 C 244.312 285.067 245.219 285.575 245.702 286.416 L 245.702 285.266 L 246.812 285.266 L 246.812 291.646 Z M 243.312 291.006 C 245.19 291.006 246.364 288.973 245.425 287.346 C 244.989 286.591 244.183 286.126 243.312 286.126 C 241.433 286.126 240.259 288.16 241.199 289.786 C 241.634 290.541 242.44 291.006 243.312 291.006" style="fill: rgb(255, 255, 255);" transform="matrix(0.9999999999999999, 0, 0, 0.9999999999999999, 0, 0)"/>
  <path class="a" d="M 263.212 285.096 C 265.913 285.143 267.552 288.096 266.161 290.413 C 264.77 292.729 261.393 292.671 260.082 290.309 C 259.793 289.788 259.642 289.202 259.642 288.606 C 259.575 286.617 261.224 284.996 263.212 285.096 M 263.212 291.096 C 265.126 291.189 266.423 289.174 265.546 287.47 C 264.668 285.765 262.275 285.65 261.238 287.262 C 260.98 287.663 260.842 288.129 260.842 288.606 C 260.754 289.969 261.847 291.117 263.212 291.096" style="fill: rgb(255, 255, 255);" transform="matrix(0.9999999999999999, 0, 0, 0.9999999999999999, 0, 0)"/>
  <path class="a" d="M 268.172 286.856 C 268.172 286.236 268.112 285.716 268.112 285.266 L 269.172 285.266 C 269.172 285.626 269.172 285.996 269.172 286.366 C 269.611 285.556 270.471 285.064 271.392 285.096 C 273.152 285.096 273.932 286.206 273.932 287.826 L 273.932 291.956 L 272.822 291.956 L 272.822 287.956 C 272.822 286.846 272.342 286.146 271.292 286.146 C 269.852 286.146 269.222 287.146 269.222 288.716 L 269.222 291.956 L 268.112 291.956 L 268.172 286.856 Z" style="fill: rgb(255, 255, 255);" transform="matrix(0.9999999999999999, 0, 0, 0.9999999999999999, 0, 0)"/>
  <path class="a" d="M 282.342 291.646 C 282.342 294.066 281.052 295.376 278.702 295.376 C 277.478 295.434 276.287 294.973 275.422 294.106 L 276.222 293.186 C 276.832 293.926 277.743 294.352 278.702 294.346 C 280.702 294.346 281.232 293.066 281.232 291.646 L 281.232 290.796 C 280.715 291.587 279.826 292.056 278.882 292.036 C 276.924 292.148 275.288 290.566 275.332 288.606 C 275.197 286.599 276.876 284.939 278.882 285.096 C 279.849 285.067 280.754 285.575 281.232 286.416 L 281.232 285.266 L 282.342 285.266 L 282.342 291.646 Z M 278.852 291.006 C 280.73 291.006 281.904 288.973 280.965 287.346 C 280.529 286.591 279.723 286.126 278.852 286.126 C 276.973 286.126 275.799 288.16 276.739 289.786 C 277.174 290.541 277.98 291.006 278.852 291.006" style="fill: rgb(255, 255, 255);" transform="matrix(0.9999999999999999, 0, 0, 0.9999999999999999, 0, 0)"/>
  <polygon class="a" points="251.922 281.846 253.122 281.846 253.122 286.216 253.292 286.216 257.892 281.846 259.612 281.846 254.622 286.456 259.862 291.956 258.102 291.956 253.292 286.816 253.122 286.816 253.122 291.956 251.922 291.956 251.922 281.846" style="fill: rgb(255, 255, 255);" transform="matrix(0.9999999999999999, 0, 0, 0.9999999999999999, 0, 0)"/>
  <path class="a" d="M 118.042 263.706 L 124.102 263.706 L 124.102 262.756 L 116.922 262.756 L 116.922 260.956 C 118.768 260.8 120.604 260.54 122.422 260.176 L 122.602 260.176 L 122.062 259.176 L 121.972 259.176 C 118.079 259.948 114.12 260.339 110.152 260.346 L 109.972 260.346 L 110.262 261.346 L 110.362 261.346 C 112.302 261.296 114.162 261.196 115.902 261.036 L 115.902 262.706 L 108.722 262.706 L 108.722 263.656 L 114.722 263.656 C 113.961 264.444 113.104 265.132 112.172 265.706 C 110.957 266.502 109.655 267.156 108.292 267.656 L 108.152 267.706 L 108.602 268.636 L 108.722 268.636 C 110.231 268.04 111.67 267.279 113.012 266.366 C 114.059 265.64 115.016 264.79 115.862 263.836 L 115.862 267.716 L 111.592 267.716 L 111.592 275.026 L 121.302 275.026 L 121.302 267.716 L 116.922 267.716 L 116.922 263.836 C 118.861 265.845 121.197 267.429 123.782 268.486 L 123.862 268.486 L 124.692 267.596 L 124.522 267.516 C 122.146 266.656 119.949 265.364 118.042 263.706 Z M 120.282 271.766 L 120.282 274.096 L 112.652 274.096 L 112.652 271.766 L 120.282 271.766 Z M 112.652 270.816 L 112.652 268.676 L 120.322 268.676 L 120.322 270.816 L 112.652 270.816 Z" style="fill: rgb(255, 255, 255);" transform="matrix(0.9999999999999999, 0, 0, 0.9999999999999999, 0, 0)"/>
  <path class="a" d="M 204.042 270.396 C 202.884 268.87 202.084 267.103 201.702 265.226 L 208.012 265.226 L 208.012 264.146 L 200.352 264.146 C 200.542 262.826 200.702 261.286 200.822 259.446 L 200.822 259.306 L 199.762 259.306 L 199.762 259.426 C 199.642 261.136 199.482 262.756 199.272 264.146 L 192.832 264.146 L 192.832 265.226 L 199.082 265.226 C 198.833 266.846 198.301 268.41 197.512 269.846 C 196.202 271.842 194.383 273.451 192.242 274.506 L 192.092 274.596 L 192.862 275.426 L 192.952 275.376 C 195.25 274.271 197.188 272.537 198.542 270.376 C 199.364 268.778 199.915 267.055 200.172 265.276 L 200.652 265.276 C 201.056 267.341 201.905 269.294 203.142 270.996 C 204.347 272.763 205.898 274.267 207.702 275.416 L 207.812 275.486 L 208.512 274.486 L 208.392 274.416 C 206.682 273.388 205.202 272.02 204.042 270.396 Z" style="fill: rgb(255, 255, 255);" transform="matrix(0.9999999999999999, 0, 0, 0.9999999999999999, 0, 0)"/>
  <path class="a" d="M 181.152 261.106 L 181.072 261.026 C 180.457 260.346 179.758 259.748 178.992 259.246 L 178.892 259.186 L 178.242 259.946 L 178.362 260.036 C 179.078 260.529 179.727 261.114 180.292 261.776 L 171.582 261.776 L 171.582 262.776 L 179.242 262.776 L 179.242 265.776 L 173.492 265.776 L 173.492 273.906 L 174.652 273.906 L 174.652 266.806 L 179.242 266.806 L 179.242 275.456 L 180.402 275.456 L 180.402 266.806 L 185.202 266.806 L 185.202 272.056 C 185.202 272.676 184.952 272.676 184.862 272.676 C 184.029 272.648 183.209 272.469 182.442 272.146 L 182.242 272.066 L 182.332 273.186 L 182.412 273.186 C 183.196 273.48 184.024 273.642 184.862 273.666 C 185.732 273.778 186.474 273.037 186.362 272.166 L 186.362 265.756 L 180.362 265.756 L 180.362 262.756 L 188.012 262.756 L 188.012 261.756 L 180.542 261.756 L 181.152 261.106 Z" style="fill: rgb(255, 255, 255);" transform="matrix(0.9999999999999999, 0, 0, 0.9999999999999999, 0, 0)"/>
  <path class="a" d="M 132.832 263.106 L 132.942 263.206 L 133.572 262.366 L 133.492 262.286 C 132.654 261.473 131.728 260.755 130.732 260.146 L 130.632 260.086 L 130.052 260.856 L 130.172 260.926 C 131.135 261.554 132.027 262.285 132.832 263.106 Z" style="fill: rgb(255, 255, 255);" transform="matrix(0.9999999999999999, 0, 0, 0.9999999999999999, 0, 0)"/>
  <path class="a" d="M 141.772 266.086 L 145.452 266.086 L 145.452 265.136 L 141.542 265.136 L 141.542 262.856 L 144.542 262.856 L 144.542 261.956 L 141.542 261.956 L 141.542 259.346 L 140.542 259.346 L 140.542 261.956 L 137.582 261.956 L 137.582 259.346 L 136.582 259.346 L 136.582 261.956 L 134.022 261.956 L 134.022 262.896 L 136.562 262.896 L 136.562 265.176 L 133.002 265.176 L 133.002 266.126 L 136.452 266.126 C 136.176 266.719 135.841 267.281 135.452 267.806 C 134.774 268.627 133.986 269.35 133.112 269.956 L 132.982 270.046 L 133.742 270.786 L 133.832 270.716 C 134.666 270.097 135.419 269.375 136.072 268.566 L 136.072 273.346 C 135.988 273.859 136.191 274.377 136.602 274.696 C 137.032 274.976 138.172 275.056 141.692 275.056 C 143.322 275.056 143.952 274.866 144.202 274.326 C 144.408 273.561 144.502 272.769 144.482 271.976 L 144.482 271.896 L 143.392 271.366 L 143.392 271.756 C 143.4 272.377 143.347 272.997 143.232 273.606 C 143.082 273.976 142.632 274.036 141.692 274.036 C 139.092 274.036 137.692 274.036 137.352 273.816 C 137.012 273.596 137.092 273.556 137.092 273.296 L 137.092 271.496 L 142.152 271.496 L 142.152 268.056 C 142.983 268.883 143.902 269.617 144.892 270.246 L 144.992 270.306 L 145.782 269.416 L 145.642 269.336 C 144.146 268.525 142.829 267.42 141.772 266.086 Z M 137.092 270.536 L 137.092 268.686 L 141.092 268.686 L 141.092 270.536 L 137.092 270.536 Z M 140.522 262.856 L 140.522 265.136 L 137.582 265.136 L 137.582 262.856 L 140.522 262.856 Z M 136.652 267.726 C 137.004 267.209 137.309 266.66 137.562 266.086 L 140.562 266.086 C 140.928 266.675 141.354 267.224 141.832 267.726 L 136.652 267.726 Z" style="fill: rgb(255, 255, 255);" transform="matrix(0.9999999999999999, 0, 0, 0.9999999999999999, 0, 0)"/>
  <path class="a" d="M 133.152 268.636 L 132.312 268.056 L 132.312 268.236 C 131.644 270.505 130.675 272.675 129.432 274.686 L 129.362 274.786 L 130.282 275.436 L 130.362 275.306 C 131.551 273.229 132.494 271.021 133.172 268.726 L 133.152 268.636 Z" style="fill: rgb(255, 255, 255);" transform="matrix(0.9999999999999999, 0, 0, 0.9999999999999999, 0, 0)"/>
  <path class="a" d="M 132.072 267.126 L 132.182 267.246 L 132.822 266.426 L 132.742 266.336 C 131.923 265.432 130.996 264.633 129.982 263.956 L 129.882 263.886 L 129.302 264.636 L 129.412 264.716 C 130.381 265.424 131.273 266.231 132.072 267.126 Z" style="fill: rgb(255, 255, 255);" transform="matrix(0.9999999999999999, 0, 0, 0.9999999999999999, 0, 0)"/>
  <path class="a" d="M 214.722 267.446 L 227.652 267.446 L 227.652 269.296 L 228.652 269.296 L 228.652 266.506 L 227.492 266.506 L 227.652 260.126 L 223.652 260.126 L 223.652 261.126 L 226.542 261.126 L 226.542 262.296 L 223.652 262.296 L 223.652 263.296 L 226.492 263.296 L 226.492 264.396 L 223.392 264.396 L 223.392 265.346 L 226.472 265.346 L 226.472 266.586 L 222.842 266.586 L 223.492 265.876 L 223.392 265.786 C 222.982 265.406 222.602 265.066 222.202 264.736 C 222.572 264.376 222.907 263.981 223.202 263.556 L 223.262 263.476 L 222.892 263.056 L 223.492 262.386 L 223.332 262.236 C 223.002 261.946 222.672 261.646 222.332 261.356 C 222.749 260.947 223.134 260.506 223.482 260.036 L 223.552 259.946 L 222.942 259.266 L 222.842 259.396 C 222.487 259.906 222.074 260.372 221.612 260.786 C 221.122 260.426 220.612 260.056 219.962 259.676 L 219.862 259.616 L 219.282 260.286 L 219.412 260.366 C 219.982 260.736 220.462 261.066 220.892 261.366 C 220.351 261.763 219.767 262.099 219.152 262.366 L 219.012 262.426 L 219.502 263.216 L 219.612 263.166 C 220.325 262.842 220.997 262.433 221.612 261.946 C 221.962 262.256 222.312 262.586 222.612 262.876 C 222.297 263.321 221.938 263.733 221.542 264.106 C 221.072 263.776 220.542 263.456 220.062 263.106 L 219.962 263.036 L 219.392 263.736 L 219.512 263.816 C 219.912 264.066 220.342 264.356 220.802 264.706 C 220.275 265.098 219.709 265.434 219.112 265.706 L 218.972 265.766 L 219.462 266.526 L 215.902 266.526 L 215.902 265.216 L 218.982 265.216 L 218.982 264.216 L 215.882 264.216 L 215.882 263.216 L 218.882 263.216 L 218.882 262.216 L 215.882 262.216 L 215.882 261.516 C 216.998 261.299 218.08 260.936 219.102 260.436 L 219.232 260.376 L 218.672 259.476 L 218.562 259.476 C 217.418 259.991 216.211 260.351 214.972 260.546 L 214.852 260.546 L 215.002 266.416 L 213.842 266.416 L 213.842 269.206 L 214.842 269.206 L 214.722 267.446 Z M 219.482 266.446 C 220.194 266.133 220.866 265.733 221.482 265.256 C 221.962 265.686 222.342 266.046 222.702 266.416 L 222.772 266.486 L 219.432 266.486 L 219.482 266.446 Z" style="fill: rgb(255, 255, 255);" transform="matrix(0.9999999999999999, 0, 0, 0.9999999999999999, 0, 0)"/>
  <path class="a" d="M 229.162 271.356 L 221.552 271.356 L 221.552 271.256 C 223.178 270.783 224.74 270.111 226.202 269.256 L 226.272 269.256 L 226.272 268.436 L 216.162 268.436 L 216.162 269.436 L 224.162 269.436 C 223.219 269.836 222.25 270.17 221.262 270.436 L 221.012 270.496 L 220.542 270.616 L 220.312 270.666 L 220.152 270.666 L 220.232 270.816 C 220.333 271.02 220.42 271.23 220.492 271.446 L 213.202 271.446 L 213.202 272.396 L 220.772 272.396 C 220.876 272.816 220.939 273.245 220.962 273.676 C 220.962 274.126 220.962 274.326 220.812 274.416 C 220.713 274.487 220.592 274.519 220.472 274.506 C 219.848 274.488 219.233 274.348 218.662 274.096 L 218.462 274.016 L 218.552 275.136 L 218.642 275.136 C 219.285 275.36 219.96 275.481 220.642 275.496 C 221.001 275.524 221.357 275.417 221.642 275.196 C 221.942 274.946 222.062 274.476 222.062 273.646 C 222.051 273.215 221.994 272.786 221.892 272.366 L 229.242 272.366 L 229.162 271.356 Z" style="fill: rgb(255, 255, 255);" transform="matrix(0.9999999999999999, 0, 0, 0.9999999999999999, 0, 0)"/>
  <path class="a" d="M 155.722 270.106 L 155.552 269.106 L 155.392 269.196 C 154.914 269.459 154.42 269.69 153.912 269.886 L 153.912 265.226 L 155.702 265.226 L 155.702 264.286 L 153.912 264.286 L 153.912 259.836 L 152.912 259.836 L 152.912 264.286 L 150.822 264.286 L 150.822 265.226 L 152.892 265.226 L 152.892 270.286 C 152.162 270.566 151.482 270.826 150.662 271.056 L 150.502 271.056 L 151.032 272.056 L 151.142 272.056 C 152.686 271.549 154.187 270.92 155.632 270.176 L 155.722 270.106 Z" style="fill: rgb(255, 255, 255);" transform="matrix(0.9999999999999999, 0, 0, 0.9999999999999999, 0, 0)"/>
  <path class="a" d="M 165.952 271.856 C 165.916 272.638 165.806 273.415 165.622 274.176 C 165.552 274.406 165.432 274.406 165.402 274.406 C 165.202 274.406 164.822 274.046 164.402 273.026 C 164.123 272.44 163.896 271.831 163.722 271.206 C 164.823 269.368 165.547 267.328 165.852 265.206 L 165.852 265.076 L 164.782 264.866 L 164.782 264.996 C 164.502 266.625 164.015 268.211 163.332 269.716 C 163.202 269.166 163.072 268.546 162.972 267.926 C 162.749 266.469 162.609 265 162.552 263.526 L 166.652 263.526 L 166.652 262.526 L 162.472 262.526 C 162.472 261.526 162.402 260.526 162.402 259.366 L 162.402 259.236 L 161.322 259.236 L 161.322 259.366 C 161.322 260.636 161.322 261.616 161.382 262.526 L 156.322 262.526 L 156.322 267.526 C 156.375 268.985 156.137 270.44 155.622 271.806 C 155.176 272.845 154.491 273.763 153.622 274.486 L 153.522 274.576 L 154.172 275.396 L 154.282 275.306 C 155.231 274.524 155.99 273.535 156.502 272.416 C 157.125 270.899 157.411 269.265 157.342 267.626 L 157.342 266.856 L 159.872 266.856 C 159.877 268.218 159.753 269.578 159.502 270.916 C 159.322 271.456 159.062 271.456 158.982 271.456 C 158.495 271.445 158.014 271.347 157.562 271.166 L 157.392 271.106 L 157.392 272.216 L 157.482 272.216 C 158.011 272.393 158.564 272.494 159.122 272.516 C 159.662 272.516 160.122 272.176 160.332 271.516 C 160.732 269.711 160.923 267.865 160.902 266.016 L 160.902 265.956 L 157.342 265.956 L 157.342 263.556 L 161.432 263.556 C 161.521 265.233 161.711 266.903 162.002 268.556 C 162.149 269.379 162.34 270.193 162.572 270.996 C 161.622 272.309 160.447 273.443 159.102 274.346 L 158.982 274.426 L 159.612 275.196 L 159.712 275.126 C 160.935 274.34 162.025 273.365 162.942 272.236 C 163.137 272.798 163.377 273.344 163.662 273.866 C 164.212 274.866 164.782 275.396 165.392 275.476 C 165.787 275.537 166.18 275.356 166.392 275.016 C 166.746 274.222 166.943 273.366 166.972 272.496 L 166.972 272.416 L 165.972 271.656 L 165.952 271.856 Z" style="fill: rgb(255, 255, 255);" transform="matrix(0.9999999999999999, 0, 0, 0.9999999999999999, 0, 0)"/>
  <path class="a" d="M 164.752 262.306 L 164.812 262.456 L 165.722 261.826 L 165.722 261.726 C 165.324 260.944 164.83 260.215 164.252 259.556 L 164.172 259.476 L 163.342 260.036 L 163.442 260.146 C 163.973 260.804 164.414 261.531 164.752 262.306 Z" style="fill: rgb(255, 255, 255);" transform="matrix(0.9999999999999999, 0, 0, 0.9999999999999999, 0, 0)"/>
  <path class="b" d="M 337.712 148.006 L 188.652 186.756 C 188.339 186.843 188.04 186.971 187.762 187.136 C 187.487 187.324 187.247 187.557 187.052 187.826 L 154.732 230.556 C 154.645 230.69 154.603 230.847 154.612 231.006 C 154.618 231.25 154.779 231.464 155.012 231.536 L 187.402 238.536 L 189.302 239.196 L 195.302 240.506 L 199.442 241.076 L 240.162 249.956 L 243.822 251.056 L 248.502 252.056 L 251.702 252.456 L 315.262 266.186 L 337.712 148.006 Z" style="fill: rgb(255, 255, 255);" transform="matrix(0.9999999999999999, 0, 0, 0.9999999999999999, 0, 0)"/>
  <path class="c" d="M 342.312 163.036 C 342.415 163.408 342.472 163.791 342.482 164.176 C 342.473 164.515 342.422 164.85 342.332 165.176 L 316.652 265.566 C 316.502 266.156 316.172 266.566 315.922 266.566 L 315.502 266.476 L 338.042 147.656 L 342.312 163.036 Z" style="fill: url('#a');" transform="matrix(0.9999999999999999, 0, 0, 0.9999999999999999, 0, 0)"/>
  <path class="d" d="M 315.472 266.476 L 338.042 147.656 L 188.652 186.506 C 188.3 186.593 187.963 186.731 187.652 186.916 C 187.347 187.12 187.083 187.378 186.872 187.676 L 154.322 230.676 C 153.967 231.029 154.127 231.634 154.609 231.765 C 154.653 231.776 154.697 231.784 154.742 231.786 L 189.302 239.246 C 186.85 238.404 184.638 236.984 182.852 235.106 C 179.675 231.163 178.333 226.052 179.162 221.056 C 181.042 207.446 190.822 201.346 199.862 201.346 C 203.882 201.201 207.877 202.05 211.492 203.816 L 210.962 209.876 L 206.512 209.876 L 206.712 207.536 C 205.082 206.536 199.272 205.606 194.482 207.536 C 188.852 210.126 186.432 216.806 186.112 221.296 C 185.892 224.496 186.342 228.686 188.592 231.716 C 190.842 234.746 197.162 237.096 204.592 234.606 C 207.892 233.446 209.372 236.866 209.372 236.866 L 209.022 237.056 C 204.93 239.591 200.157 240.806 195.352 240.536 L 243.822 250.986 L 250.572 238.636 L 243.032 215.056 L 239.892 215.056 L 240.262 210.796 L 248.262 210.796 L 254.732 230.986 L 263.672 214.636 C 264.849 212.181 267.382 210.669 270.102 210.796 L 271.742 210.796 L 249.222 250.956 C 249.013 251.343 248.772 251.711 248.502 252.056 L 315.472 266.476 Z M 212.262 210.816 L 221.962 210.816 L 219.362 240.646 C 219.362 240.646 212.992 240.966 213.552 234.486 L 215.242 215.076 L 211.892 215.076 L 212.262 210.816 Z M 222.542 205.526 C 222.36 207.3 220.884 208.66 219.102 208.696 C 217.377 208.731 216.014 207.241 216.202 205.526 C 216.393 203.755 217.87 202.401 219.652 202.366 C 221.371 202.332 222.729 203.817 222.542 205.526 Z M 227.542 205.946 L 234.032 204.376 L 233.462 210.816 L 238.342 210.816 L 237.982 214.946 L 233.112 214.946 L 231.652 231.406 C 231.433 232.746 231.628 234.121 232.212 235.346 C 232.729 236.143 233.645 236.59 234.592 236.506 C 236.584 236.39 238.233 238.034 238.122 240.026 C 236.586 240.371 235.024 240.582 233.452 240.656 C 230.452 240.656 228.202 239.836 226.882 238.196 C 225.562 236.556 225.072 234.086 225.362 230.746 L 227.542 205.946 Z M 302.952 223.716 C 302.803 226.347 302.377 228.955 301.682 231.496 C 301.053 233.298 300.063 234.952 298.772 236.356 C 296.212 239.216 292.492 240.666 287.772 240.666 C 283.052 240.666 279.372 239.386 277.282 236.866 C 275.192 234.346 274.672 230.426 275.132 225.116 L 276.372 210.806 L 272.372 210.806 L 272.742 206.606 L 283.052 206.606 L 282.712 210.806 L 281.572 223.596 C 281.312 225.921 281.279 228.265 281.472 230.596 C 281.583 231.824 282.045 232.993 282.802 233.966 C 284.23 235.677 286.387 236.605 288.612 236.466 C 290.888 236.533 293.097 235.691 294.752 234.126 C 296.342 232.666 297.302 229.506 297.752 224.726 L 298.992 210.436 C 299.228 208.168 301.205 206.487 303.482 206.616 L 304.482 206.616 L 302.952 223.716 Z" style="fill: url('#b');" transform="matrix(0.9999999999999999, 0, 0, 0.9999999999999999, 0, 0)"/>
</svg>